<?xml version="1.0" encoding="utf-8"?>
<!-- Generator: Adobe Illustrator 26.5.1, SVG Export Plug-In . SVG Version: 6.00 Build 0)  -->
<svg version="1.1" xmlns="http://www.w3.org/2000/svg" xmlns:xlink="http://www.w3.org/1999/xlink" x="0px" y="0px"
	 viewBox="0 0 838.3 1003" style="enable-background:new 0 0 838.3 1003;" xml:space="preserve">
<style type="text/css">
	.st0{fill:#F4F4F4;}
	.st1{clip-path:url(#SVGID_00000029737938434563823860000009042607782101233282_);}
	.st2{opacity:0.1;clip-path:url(#SVGID_00000029737938434563823860000009042607782101233282_);fill:#231815;}
	.st3{opacity:0.2;clip-path:url(#SVGID_00000115509381538103125600000004378657245358823324_);fill:#3C3C3C;}
	.st4{clip-path:url(#SVGID_00000130617409924010889840000004991375841049219482_);}
	.st5{opacity:0.1;clip-path:url(#SVGID_00000130617409924010889840000004991375841049219482_);fill:#040000;}
	.st6{fill:none;stroke:#FFFFFF;stroke-miterlimit:10;}
	.st7{clip-path:url(#SVGID_00000158731624514979378660000010906525844502293906_);}
	.st8{clip-path:url(#SVGID_00000167361920438834522900000016942927020496320932_);}
	.st9{clip-path:url(#SVGID_00000059309845585729620450000018219313831293874617_);}
	.st10{opacity:0.2;clip-path:url(#SVGID_00000059309845585729620450000018219313831293874617_);fill:#231815;}
	.st11{clip-path:url(#SVGID_00000045581355234497296630000016054953053040246966_);}
	.st12{opacity:0.1;clip-path:url(#SVGID_00000045581355234497296630000016054953053040246966_);fill:#231815;}
	.st13{clip-path:url(#SVGID_00000048489825083318514130000005662936621956977319_);}
	.st14{opacity:0.3;clip-path:url(#SVGID_00000007424043579580332120000017965104562759256724_);fill:#231815;}
	.st15{fill:none;stroke:#B4B4B4;stroke-miterlimit:10;}
	.st16{fill:none;stroke:#000000;stroke-linecap:round;stroke-linejoin:round;stroke-miterlimit:10;}
	.st17{fill:none;stroke:#B4B4B4;stroke-width:1.4142;stroke-miterlimit:10;}
	.st18{fill:#B4B4B4;}
	.st19{fill:#3C3C3C;}
	.st20{fill:#FFFFFF;}
	.st21{opacity:0.1;clip-path:url(#SVGID_00000141435777474890435570000008238754293927331987_);fill:#231815;}
	.st22{clip-path:url(#SVGID_00000026139547689266114110000007143117271292477106_);}
	.st23{fill:none;stroke:#828282;stroke-width:1.8937;stroke-miterlimit:10;}
	.st24{fill:#1C2B5A;}
	.st25{fill:#211714;}
	.st26{fill:#C8CACA;}
	.st27{fill:#606B8B;}
	.st28{clip-path:url(#SVGID_00000111185126668116092440000005750124497911017377_);}
	.st29{opacity:0.1;clip-path:url(#SVGID_00000111185126668116092440000005750124497911017377_);fill:#231815;}
	.st30{fill:#231815;}
	.st31{fill:none;stroke:#F80000;stroke-width:2;stroke-miterlimit:10;}
	.st32{opacity:0.1;clip-path:url(#SVGID_00000010283235608586181060000004734858897475628677_);fill:#004677;}
	.st33{fill:none;stroke:#FFFFFF;stroke-width:1;stroke-miterlimit:10;}
	.st34{clip-path:url(#SVGID_00000088123520625897803510000016911197806809352624_);}
	.st35{clip-path:url(#SVGID_00000147927451399860568420000009887855957113071022_);}
	.st36{fill:none;stroke:#4D4D4D;stroke-width:1;stroke-miterlimit:10;}
	.st37{fill:none;stroke:#C7C7C7;stroke-width:1;stroke-miterlimit:10;}
	.st38{clip-path:url(#SVGID_00000047045306050136322610000013915353745382891164_);}
	.st39{fill:#FFFFFF;fill-opacity:0.75;}
	.st40{fill:none;stroke:#818181;stroke-width:1.8937;stroke-miterlimit:10;}
	.st41{fill:#221512;}
	.st42{fill:#172B58;}
	.st43{fill:#333432;}
	.st44{fill:#393A38;}
	.st45{fill:#474540;}
	.st46{fill:#B3B2AD;}
	.st47{fill:#B0B2AB;}
	.st48{fill:#4E302E;}
	.st49{fill:#662B24;}
	.st50{fill:#C2B5B2;}
	.st51{fill:#3B3833;}
	.st52{fill:#73563D;}
	.st53{fill:#ABA59F;}
	.st54{fill:#D6D6D3;}
	.st55{fill:#959390;}
	.st56{fill:#9F978E;}
	.st57{fill:#AFABA4;}
	.st58{fill:#AE8580;}
	.st59{fill:#79746B;}
	.st60{fill:#898683;}
	.st61{fill:#8F8D8A;}
	.st62{fill:#CFCBC9;}
	.st63{fill:#918C8A;}
	.st64{fill:#BABAB4;}
	.st65{fill:#C3C1C0;}
	.st66{fill:#A98F7D;}
	.st67{fill:#8F7E6D;}
	.st68{fill:#60584F;}
	.st69{fill:#5F5C54;}
	.st70{fill:#57514A;}
	.st71{fill:#626260;}
	.st72{fill:#63605B;}
	.st73{fill:#74746D;}
	.st74{fill:#8F7C6B;}
	.st75{fill:#A3988D;}
	.st76{fill:#2F2F2C;}
	.st77{fill:#323230;}
	.st78{fill:#252424;}
	.st79{fill:#5F5751;}
	.st80{fill:#70716F;}
	.st81{fill:#616260;}
	.st82{fill:#64605A;}
	.st83{fill:#918679;}
	.st84{fill:#71706F;}
	.st85{fill:#57524C;}
	.st86{fill:#5A574F;}
	.st87{fill:#9F9D9D;}
	.st88{fill:#A58D7C;}
	.st89{fill:#363635;}
	.st90{fill:#2C2C29;}
	.st91{fill:#8C7B6A;}
	.st92{fill:#5F584F;}
	.st93{fill:#615852;}
	.st94{fill:#353531;}
	.st95{fill:#2D333D;}
	.st96{fill:#2A3E28;}
	.st97{fill:#3E2121;}
	.st98{fill:#511D1E;}
	.st99{fill:#6A141A;}
	.st100{fill:#C9151D;}
	.st101{fill:#46322D;}
	.st102{fill:#A31F24;}
	.st103{fill:#6E2924;}
	.st104{fill:#15263B;}
	.st105{fill:#113F28;}
	.st106{fill:#F2F1EF;}
	.st107{fill:#DFDEDB;}
	.st108{fill:#C1BFBB;}
	.st109{fill:#A89A8F;}
	.st110{fill:#5C5751;}
	.st111{fill:#CCCAC6;}
	.st112{fill:#615E5A;}
	.st113{fill:#8F7D6C;}
	.st114{fill:#66635F;}
	.st115{fill:#58544B;}
	.st116{fill:#6E685D;}
	.st117{fill:#625A4F;}
	.st118{fill:#5D5C56;}
	.st119{fill:#544E48;}
	.st120{fill:#5B534C;}
	.st121{fill:#C4C1BE;}
	.st122{fill:#60554A;}
	.st123{fill:#A7A7A3;}
	.st124{fill:#A48E80;}
	.st125{fill:#A69D93;}
	.st126{fill:#A19A93;}
	.st127{fill:#4D4D4D;}
	.st128{fill:#ECEDED;}
	.st129{fill:#97775A;}
	.st130{fill:#7B7C7D;}
	.st131{fill:#202D26;}
	.st132{fill:#5B5D59;}
	.st133{fill:#52412E;}
	.st134{fill:#615A4E;}
	.st135{fill:#7C6858;}
	.st136{fill:#00A53C;}
	.st137{fill:#042925;}
	.st138{fill:#314C68;}
	.st139{fill:#00834C;}
	.st140{fill:#00A43D;}
	.st141{fill:#007E3D;}
	.st142{fill:#516854;}
	.st143{fill:#AE1E23;}
	.st144{fill:#D1111A;}
	.st145{fill:#D70D18;}
	.st146{fill:#B61D22;}
	.st147{fill:#7C3B3A;}
	.st148{fill:#004180;}
	.st149{fill:#273B72;}
	.st150{fill:#102D4D;}
	.st151{fill:#00813E;}
	.st152{fill:#004828;}
	.st153{fill:#4E7354;}
	.st154{fill:#515351;}
	.st155{fill:#9B5353;}
	.st156{fill:#96938C;}
	.st157{fill:#A28C86;}
	.st158{fill:#6F4F4C;}
	.st159{fill:#93948F;}
	.st160{fill:#A6A3A3;}
	.st161{fill:#7C7573;}
	.st162{fill:#EBECEC;}
	.st163{fill:#212020;}
	.st164{fill:#2D2A28;}
	.st165{fill:#473E3A;}
	.st166{fill:#CAC9C7;}
	.st167{fill:#31312F;}
	.st168{fill:#A19D9A;}
	.st169{fill:#C1BFBC;}
	.st170{fill:#BABBBA;}
	.st171{fill:#32312B;}
	.st172{fill:#242423;}
	.st173{fill:#252423;}
	.st174{fill:#3C3737;}
	.st175{fill:#4C4B4A;}
	.st176{fill:#706F6D;}
	.st177{fill:#95806E;}
	.st178{fill:#E0E0DF;}
	.st179{fill:#909191;}
	.st180{fill:#3A3C3B;}
	.st181{fill:#DCE9E3;}
	.st182{fill:#00A33D;}
	.st183{fill:#00A83B;}
	.st184{fill:#92C876;}
	.st185{fill:#0061AE;}
	.st186{fill:#005DAB;}
	.st187{fill:#E7E4E6;}
	.st188{fill:#D70C18;}
	.st189{fill:#00823E;}
	.st190{fill:#372827;}
	.st191{fill:#3B3A36;}
	.st192{fill:#A7A6A4;}
	.st193{fill:#65615E;}
	.st194{fill:#635D57;}
	.st195{fill:#DF041A;}
	.st196{fill:#E5E6E6;}
	.st197{fill:#1771B9;}
	.st198{fill:#3F8DC8;}
	.st199{fill:#E00414;}
	.st200{fill:#DD1828;}
	.st201{fill:#C7534B;}
	.st202{fill:#B3B1AE;}
	.st203{fill:#AFAAA5;}
	.st204{fill:#B5B0AB;}
	.st205{fill:#CFDBE3;}
	.st206{fill:#A7A8A9;}
	.st207{fill:#222221;}
	.st208{fill:#3A332C;}
	.st209{fill:#C19E81;}
	.st210{fill:#FDFCFC;}
	.st211{fill:#0F64AD;}
	.st212{fill:#989899;}
	.st213{fill:#13A144;}
	.st214{fill:#C09D81;}
	.st215{fill:#99704E;}
	.st216{fill:#12893B;}
	.st217{fill:#F4F2F1;}
	.st218{fill:#865F3D;}
	.st219{fill:#DD161C;}
	.st220{fill:#F3F1F0;}
	.st221{fill:#7A7A7B;}
	.st222{fill:#937863;}
	.st223{fill:#055091;}
	.st224{fill:#DB181D;}
	.st225{fill:#C11B1F;}
	.st226{fill:#987E68;}
	.st227{fill:#917661;}
	.st228{fill:#F2F0EE;}
	.st229{fill:#927761;}
	.st230{fill:#B89579;}
	.st231{fill:#9E9D9E;}
	.st232{fill:#9E9E9E;}
	.st233{fill:#F7F7F7;}
	.st234{fill:#A0A0A0;}
	.st235{fill:#947A64;}
	.st236{fill:#856444;}
	.st237{fill:#B59479;}
	.st238{fill:#12823B;}
	.st239{fill:#747574;}
	.st240{fill:#C41C1E;}
	.st241{fill:#21211F;}
	.st242{fill:#222220;}
	.st243{fill:#9D9D9D;}
	.st244{fill:#DE151A;}
	.st245{fill:#FCFCFD;}
	.st246{fill:#FCFCFB;}
	.st247{fill:#FCFCFC;}
	.st248{fill:#FCF6F6;}
	.st249{fill:#222120;}
	.st250{fill:#FAFAFA;}
	.st251{fill:#FBE7E6;}
	.st252{fill:#9D9D9E;}
	.st253{fill:#DF151B;}
	.st254{fill:#AE2325;}
	.st255{fill:#EF6463;}
	.st256{fill:#E2151C;}
	.st257{fill:#FDFDFD;}
	.st258{fill:#FDF9F9;}
	.st259{fill:none;stroke:#464546;stroke-width:2;stroke-miterlimit:10;}
	.st260{fill:none;stroke:#323232;stroke-miterlimit:10;}
	.st261{fill:none;stroke:#E71F19;stroke-width:2;stroke-miterlimit:10;}
</style>
<g id="back">
</g>
<g id="レイアウト">
</g>
<g id="枠">
	<g>
		<path class="st207" d="M146.3,644.4c1.2-13.1,5.3-25.5,9.6-37.8c7.3-20.7,17.5-40.3,25.1-60.9c5.6-15.2,10.2-30.6,12.4-46.7
			c0.3-2.5,1-4.7-2.8-5.8c-38-11-62.3-36.9-77.2-72.6c-2.1-5.1-4.2-10.2-5.6-15.5c-1.1-4.2-3.2-4.9-7.1-4.7
			c-21.6,1.4-41.3-3.8-58.8-16.8c-31.4-23.5-38.8-67.3-16.6-98.8c6.6-9.3,15.4-16,26-20.3c6.4-2.5,6.4-2.6,4.2-8.8
			c-7.3-20.4-10.3-41.3-7.8-62.9c2.6-23,9.9-44,25.5-61.6c1.3-1.5,2.3-2.9,2.4-5.1c0.4-10.6,4.9-19.2,12.5-26.4
			c11.8-11.2,25.3-19.5,41.3-23.1c7-1.6,14.1-1.8,21.1,0.3c1.5,0.4,2.7,0.6,4.2-0.1c21.1-9.1,42.7-7.2,64.1-1.6
			c24.6,6.4,44.7,20.5,62.1,38.6c5.1,5.3,5.1,5.3,10.3,0.2c24.7-24.6,63-27.2,88.8-5.3c19.7,16.7,26.9,38.9,24.7,64.2
			c-1.2,13.4-5.4,25.9-12.4,37.4c-1.8,3-1.4,4.4,1.3,6.6c9.9,8.2,19.5,16.9,27.4,27.2c2.8-3.5,5.2-7,8.1-9.9
			c9.8-10,22.4-6.8,26.6,6.5c2.8,9,0.8,17.5-1.5,26.2c-0.4,1.5-3.2,4.1,0.6,5c3,0.7,5.5,3.6,9.4-0.4c7-7.3,7.7-14.6,4.9-23.9
			c-3.3-11.3-5-23.1-3.9-35c0.2-2.2,0.1-4.8,1-6.7c3.2-6.3,0.8-11.3-2.4-16.9c-10.4-18.4-20.3-37.1-30.3-55.7
			c-4-7.5-3.2-13,3.3-18.5c32.5-27.3,65-54.6,97.6-81.9c3.1-2.6,6.6-3.8,10.6-4.4c33.4-4.5,66.9-9.1,100.3-13.5
			c6.8-0.9,11.9,2.2,15.3,9.3c10.5,21.7,20.9,43.3,31.4,65c11.7,24.3,23.5,48.5,35.2,72.8c3.7,7.6,2.4,13.4-4.3,18.8
			c-13.5,10.8-26.9,21.7-40.6,32.2c-4.7,3.6-17.5,13.8-17.5,14.1c-0.2,0,15.1,0.1,16.4,0.1c16.5,0.6,32.9,1.1,49.4,1.6
			c24.7,0.8,49.4,1.5,74.1,2.3c10.8,0.4,15.1,4.8,15.1,15.7c0,50.2,0,100.5-0.2,150.7c0,4.5-0.3,8.5,3.6,11.9
			c2.2,1.9,2.1,5.3,2.1,8.2c0,48.8-0.1,97.6,0,146.3c0,7.5-2.1,13.3-10.3,15.8c5.7,3.9,6.7,9.2,6.7,15.1c-0.1,46.8,0,93.7-0.1,140.5
			c0,3.2,0.4,6.5-0.5,9.6c-0.4,1.4-0.2,2.4,0.9,3.5c3.1,3.1,3.8,7,3.8,11.1c0,50.1,0,100.1,0,150.2c0,8.5-3.9,13.2-12.2,14.9
			c-44.9,9.1-89.9,18.2-134.8,27.2c-5.7,1.1-10.8,0.2-15.6-3.2c-24.9-17.7-49.8-35.3-74.7-52.9c-4.8-3.4-6.9-8.1-6.9-13.7
			c0-47.2-0.1-94.3,0-141.5c0-6,1.8-11.2,8.2-13.4c1.7-0.6,1.6-1.6,1.5-2.9c-0.1-48-0.1-95.9-0.2-143.9c0-0.2,0-0.3,0-0.5
			c0-7.8-0.1-8-5.4-13.4c-3.5-3.5-4-7.9-4-12.6c0-45.2,0-90.5,0-135.7c0-2.6-0.1-5.2,0-7.8c0.3-5.3,2.3-9.7,7.4-12.2
			c1.1-0.5,2.4-0.6,2-2.6c-1.4-7-0.6-14.2-0.6-21.3c-0.1-31.8-0.1-63.6-0.2-95.5c0-1.6,0.8-3.5-0.7-4.9c-1.2,0.1-1.4,0.9-1.7,1.6
			c-9,23.5-24.7,41.8-44,57.3c-3.4,2.7-5.1,5.7-5.6,9.9c-3.7,28.2-11.1,55.3-22.2,81.5c-14.5,33.9-34.8,64-60.4,90.5
			c-2.5,2.6-3,4.7-1.6,8c9.5,22.8,19.8,45.2,27.6,68.7c12.7,38.2,14.3,76.5,0.2,114.9c-1.2,3.3-4,7-3.3,9.7c0.8,2.8,5.1,4.5,7.8,6.9
			c21,18.5,31.1,42.3,33.5,69.8c1.6,18.2,0,36.1-3.7,53.9c-0.5,2.5-1.2,4.4,3,4.5c49.7,1.3,71.5,51.3,47.9,91.1
			c-13.4,22.6-34.4,35.1-59.3,41.1c-33.8,8.1-66.2,4.1-95.8-15c-26.4-17.1-39.1-42.6-42.3-73.2c-1.7-15.9-0.2-31.6,3.1-47.2
			c0.7-3.2,0-3.8-3.2-3.2c-14.2,2.7-28.5,3.7-42.9,3.6c-1.7,0-3,0.1-3.9,2.1c-5.3,11.6-11.8,22.6-19.8,33.3c2.5,1,4.7,1.7,6.8,2.6
			c16.3,6.8,27.5,18,30,36.1c2.4,17.4-5,30.9-18.1,41.4c-17,13.7-37.2,18.2-58.5,18.1c-40.9-0.2-77.1-25.4-90.9-63.1
			c-9.6-26.4-6-52.1,4.3-77.5c4.9-12,11-23.4,18.7-33.8c1.8-2.5,2.2-4-0.4-6.3c-7-6.2-13.2-13.3-18.5-21c-2.1-3-3.2-3.1-6.1-0.7
			c-16.5,14.4-40.7,13.9-54.7-1.3c-11.3-12.2-13.5-26.7-7.8-41.9c5.3-13.9,15.6-22.2,30.8-23.8c2.4-0.5,4.9-0.6,7.3,0.1
			c0.2-0.1,0.5-0.1,0.7,0c1.1-1.9,0.8-3.8,0.2-5.8c-0.1-0.5-0.1-1.1-0.2-1.6c-0.8-1.7,0.1-3.5-0.7-5.2c-0.1-0.9-0.2-1.7-0.2-2.6
			c-0.9-2.6,0.3-5.5-0.8-8.1c-0.5-1.8-0.5-3.6-0.2-5.4c-0.5-6.7-0.6-13.4,0-20.1c0.1-1.5,0.1-3.1,0.2-4.6c1.1-2.6-0.2-5.4,0.8-8.1
			c0-0.5,0.1-1.1,0.1-1.6C146.7,648.6,145.3,646.3,146.3,644.4z"/>
		<path class="st208" d="M144.4,664.7c0,6.7,0,13.4,0,20.1C143.5,678.1,143.5,671.4,144.4,664.7z"/>
		<path class="st208" d="M144.6,690.2c1.7,2.5,0.8,5.3,0.8,8.1C144.6,695.6,144.4,692.9,144.6,690.2z"/>
		<path class="st208" d="M145.3,652.1c0,2.7,0.9,5.5-0.8,8.1C144.5,657.4,144.4,654.7,145.3,652.1z"/>
		<path class="st208" d="M145.6,713.4c-2.4,0-4.9-0.1-7.3-0.1C140.7,712.6,143.2,712.4,145.6,713.4z"/>
		<path class="st208" d="M146.5,707.7c1.2,2,1.9,3.9-0.2,5.8C147.5,711.5,145.8,709.6,146.5,707.7z"/>
		<path class="st208" d="M146.3,644.4c0,2.1,0.8,4.2-0.9,6C145.4,648.4,145.4,646.3,146.3,644.4z"/>
		<path class="st208" d="M145.6,700.9c1.4,1.6,0.8,3.4,0.7,5.2C145.4,704.4,145.5,702.6,145.6,700.9z"/>
		<path class="st209" d="M367.4,706.8c24.9-3.5,49.6-2.9,73.9,4.1c40.4,11.6,64.5,40.8,68.7,82.5c2.7,26.9-2.3,52.7-10.3,78.1
			c-2.2,6.9-4.6,13.7-6.7,20.7c6.1-7.2,11.4-15,14.8-23.7c2.2-5.6,5.2-7.3,11-7c19.2,1.3,34.5,9,43,26.6c8.9,18.5,5.8,36.7-5.6,53.2
			c-13.4,19.4-33,29.7-55.6,34c-30.1,5.7-58.9,1.8-84.8-15.7c-23.1-15.6-34.3-38.2-36.9-65.6c-2.4-13.5,1.6-25.7,8-37.3
			c4.4-8,8.5-16.1,13.5-23.8c1.7-1.1,3.4-2.2,5.1-3.3c-21.3,4-42.5,8.3-64.1,9.2c-5.3,0.8-10.6,0.1-15.9,0.3c-1.7,0-3.3,0-5,0
			c-7.5-2.7-15.5-2.8-23.1-5c-25.7-7.2-49.4-18-70.1-35c-19.8-16.3-34.3-36.3-42.8-60.5c-4.2-11.9-8.7-23.7-10.3-36.3
			c-2.9-22.3-0.3-44.1,5.6-65.6c6.6-24.3,16.5-47.2,27.8-69.6c10.5-20.9,15.3-43,15.9-66.3c0-1.6-0.5-3.3,1.5-4.2
			c22.5-1.7,42.9-9.4,61.8-21.5c3.5-3.8,7.3-6.9,12.9-5.9c2.5,0,4.9,0,7.4,0c2.6-0.9,5.4,0.2,7.9-0.7c25.2-2.8,44.6-15.7,60.5-34.7
			c15.6-18.6,27.6-39.4,37.4-61.4c16.7-37.5,38.6-71.5,64.2-103.3c3.1-3.8,3.8-7.3,2.6-12c-3.6-13.3-6.2-26.7-5.8-40.6
			c0.1-4.7,0.7-9.4,2.6-13.7c2.9-6.9,9.4-8.2,14.8-3c6.4,6.1,7.9,14.6,10.6,22.5c0.5,1.3-0.7,2.4-1.3,3.6c-1.7,3.8-3.6,7.5-4.7,12.9
			c4.3-4.6,7.7-8.5,11.3-12.2c11.1-11.2,23.5-20.3,39.4-23.1c12.7-2.3,23.1,2.4,29.7,13.3c8.1,13.3,9.3,27.6,6.5,42.5
			c-3.7,19.5-13.8,35.7-26.6,50.3c-6.6,7.5-13.8,14.5-22,20.4c-2.6,1.9-4.1,4.1-4.6,7.5c-4.4,30.1-12.1,59.4-24.5,87.3
			c-16.8,37.7-41.1,70-70.5,98.6c-13.3,13-27.1,25.4-41,37.7c-2.3,2-4.4,4.1-8,7.5c5-2.1,5.3-1.1,3.7,1.8
			c-7.5,13.2-11.6,27.6-14.4,42.4c-0.6,1.6-0.5,3.5-1.6,5c-10.3,13.8-12.7,30.2-15,46.5c-1.8,12.8-1.3,25.8-1,38.7
			c0,1.6-1.3,4.5,2.2,4.8c0.6,0,1.2-0.1,1.8-0.1C363.3,706.6,365.5,707.7,367.4,706.8z"/>
		<path class="st209" d="M124,420.8c-3.5-7.5-6.2-15.2-8.5-23.1c-2.1-7.1-2.1-7.3-9.8-6.8c-14.2,0.8-28-0.4-41.3-5.9
			c-29.4-12.2-46.3-40.6-41.1-70.3c3.6-20.7,15.3-35.2,35.5-42.1c1.5-0.5,3.3-1.9,4.4,0.8c3.4,8.2,8.8,15.4,13.4,23.3
			c-4.3,1.8-8.7,3-12.3,5.8C46.9,316,48,343.3,66.5,356.7c7.6,5.5,16.1,8.1,25.3,8.7c4.3,0.3,9-0.8,11.4,4.9
			c-1.6-11.1-3.4-21.5-4.5-32.1c-0.6-5.2-2-10.9-0.1-15.3c2-4.7,8.7-3.2,13.3-4.5c23.2-6.7,44.8-16.5,63.1-32.6
			c1.3-1.2,2.7-2.2,4.1-3.3c0.1-0.1,0.3,0,1-0.1c-4.5,11.3-6.3,22.6-0.2,35.1c0.6-4.4,0.9-7.6,1.4-10.8c2.2-13.3,6.6-25.4,19.5-32.3
			c0.8-0.4,1.9-0.9,1.7-2.1c-0.2-1.3-1.2-2-2.3-2.2c-1.7-0.4-3.5-0.4-6.2-0.6c23.5-20.2,49.4-35.1,76.2-48.9
			c1.3,1.1,0.3,2.5,0.6,3.6c0.9,2.7,2.4,4,5,2.1c13.5-9.7,27.7-8.9,42.3-2.9c-3.4-9.1-17.1-14.3-32.8-12.3c1.4-2.7,4-3.9,5.9-5.7
			c8.7-8.1,16.3-17.1,22.1-27.4c1.7-3,3.2-3.4,6.4-2.1c18.4,7.6,34.3,19.1,50.5,31.5c-0.6-3.8-2.6-6.3-4.3-8.8
			c-1.5-2.2-1.4-3.8-0.3-6.1c6.3-12.7,8.1-25.9,2.4-39.3c-7.7-18.1-28.1-25.6-45.7-16.6c-3.3,1.7-5.3,2.3-8.2-0.7
			c-3.6-3.7-8.6-5-13.6-5.7c-2.7-0.4-5.6-0.9-6.3-3.6c-0.6-2.2,2.1-3.8,3.7-5.3c16.5-15.7,36-21.6,57.9-14.7
			c22.5,7,34.5,24.1,38.8,46.6c3.9,20.5-2.2,39.3-12.4,56.9c-3.3,5.7-3.4,6.2,1.4,10.4c11.7,10.2,23.4,20.3,32.5,33.1
			c12.1,17,18.1,35.8,17.7,56.7c0,1.7,0.2,3.5-0.9,5.1c-12.9,18.7-21.6,39.6-31.6,59.8c-4.3,8.6-8.2,17.5-14.1,25.2
			c-2-2.6-0.2-4.9,0.5-7.3c3.3-10.5,6-21,5.6-32.2c-0.5-13.3-3.7-25.7-11.4-36.8c-1-1.5-2.8-2.8-1.7-5.1
			c-3.9-8.5-10.7-13.9-19.1-17.5c-3.7-1.6-41.4-7.8-45.4-7.2c-21.4,3.4-39.5,12.6-52.1,30.8c-1.2,1.8-2.7,3.1-4.5,4.3
			c-24.4,16.8-37.4,39.7-36,69.7c0.9,20.6,9.8,37.5,25.5,50.9c2.7,2.3,5.6,4.3,8.5,6.4c0.4,2.3-1.4,3.2-3,3.9
			c-30.3,13.9-71,17.4-101.2-5.7C140.5,445.7,131.3,434.1,124,420.8z"/>
		<path class="st210" d="M86.3,120.3c1.9-7.3,7-12.2,12.5-16.8c10.9-9.1,23-16,37.3-18c3.8-0.5,7.7-1.2,11.3,1.1
			c4.5,2,8.2,5.2,11.8,8.4c11.7,10.4,22.9,21.3,32.5,33.7c0.7,0.9,1.3,1.8,2.3,2.5c0.4,0.3,0.8,0.5,1.7,0.3c0.4-2.2-1.1-3.8-2.4-5.3
			c-10.2-11.8-20.3-23.7-32.3-33.9c-1.7-1.5-4.2-2.7-3.7-5.7c5.1-2.8,10.5-4.5,16.3-5c4.8-1.3,8.6,0.1,12.1,3.8
			c9.3,9.9,19.2,19.1,29.6,27.8c11,9.2,23.7,14,38.1,14.8c-16.7-2.7-31-9.8-42.9-21.7c-6.2-6.1-12.3-12.3-18.5-18.5
			c-1-1-2.1-2-2.9-3.2c-1.6-2.3-1.3-3.6,1.8-3.4c1.8,0.1,3.5-0.3,5.3,0.3c33,2.9,59,19,81.2,42.5c2.2,2.4,4.6,4.6,6.6,7.1
			c4.1,5.1,9.6,7.4,15.8,8.6c12.9,2.5,17.6,11.4,11.9,23.2c-9.2,18.9-22.1,34.9-40.4,45.8c-13.6,8.1-27.5,15.5-41.2,23.4
			c-20.8,12-39.2,27.2-56.8,43.4c-21.1,19.4-46.2,31-74,37.1c-7.8,1.7-12.9-2.3-12.1-10.4c0.6-5.9-2-9.8-4.8-14.1
			c-16.8-25.9-26.5-54.1-25.4-85.3c0.5-13.6,3.1-26.9,8.5-39.5c1-2,2.3-1.2,3.6-0.4c1.5,1,2.6,2.5,3.6,3.9c9.1,12.3,16,25.7,21,40.1
			c4.6,13.4,2.3,26.2-2.6,35.9c10-14.3,8.3-31.5,0.1-49c-4.2-9.1-9-17.8-14.8-26c-1.9-2.6-3.9-5.1-6.6-7c-1.2-0.8-2.4-1.8-1.5-3.6
			c3.9-9.1,10.3-16.6,16.5-24.2c2.8-2.9,4.7-0.2,6.5,1.4c7.9,7,14.1,15.5,20.1,24c3.2,4.6,6,9.6,9.1,14.2c0.8,1.1,1.1,2.8,3.1,3
			c0.9-2.5,0-4.8-1.2-6.8c-9.2-16.4-17.9-33.3-33.9-44.6C86.8,123.2,85.3,122.3,86.3,120.3z"/>
		<path class="st211" d="M652.2,325.2c0-26.6,0-53.3,0-79.9c0-8.4,1.3-9.7,9.6-9.5c38.2,0.9,76.4,1.8,114.6,3
			c9.3,0.3,18.7,0.4,28,0.8c5.6,0.2,7.4,1.9,7.5,7.7c0,50.7,0,101.4,0,152.1c0,6.2-1.8,7.7-8.2,7.9c-38.2,1.6-76.3,3.3-114.5,5
			c-9.7,0.4-19.3,1.1-29,1.5c-6.7,0.3-8-1.1-8-7.7C652.2,379.2,652.2,352.2,652.2,325.2z"/>
		<path class="st212" d="M653,680.8c0-24.9,0.2-49.7-0.1-74.6c-0.1-6.8,3-11.1,11.8-7.5c9.1,3.7,17.7,3.6,26.9,1.9
			c16.8-3,33.5-6.9,50.6-8.1c17.9-1.2,35.8-2.2,53.6-3.3c3.7-0.2,7.4-0.6,11.1-0.7c5.6-0.2,6.8,1,6.8,6.7c0,25.8,0,51.7,0,77.5
			c0,22.6,0,45.2-0.1,67.8c0,6.4-1.4,8-7.7,8.6c-45.9,4.3-91.9,8.6-137.8,12.9c-2.7,0.3-5.4,0.7-8.2,0.8c-5.7,0.3-6.9-0.9-6.9-6.6
			c0-23.3,0-46.5,0-69.8C653,684.7,653,682.7,653,680.8C653,680.8,653,680.8,653,680.8z"/>
		<path class="st213" d="M678.3,510.2c0-25.8,0-51.7,0-77.5c0-6.3,1-7.7,7.3-8.3c12.6-1.4,25.3-2.4,38-3.5
			c23.4-2.2,46.8-4.4,70.2-6.6c6.2-0.6,12.5-1.2,18.7-1.8c2.4-0.3,3.7,1,4.2,3c0.3,1.2,0.2,2.6,0.2,3.8c0,48.3,0,96.6,0,144.8
			c0,7.3-0.5,8-7.6,9.2c-35.9,6.1-71.7,12.1-107.6,18.1c-5.7,1-11.4,2.1-17.1,3c-5.3,0.9-6.5-0.2-6.5-5.7
			C678.2,562.5,678.3,536.3,678.3,510.2C678.3,510.2,678.3,510.2,678.3,510.2z"/>
		<path class="st214" d="M235.7,829.7c18.8,8.4,38.3,14.4,58.9,16.9c4.5,0.6,9,1.3,13.5,1.4c4.4,0.1,4.8,1.4,2.9,5
			c-11.5,21.7-26.5,40.5-46.5,54.9c-2,1.4-3.9,2.8-5.6,5c2.2-0.8,4.5-1.4,6.7-2.4c9.3-3.9,17.9-9.1,25.5-15.5c2.3-1.9,4.2-2.2,7-1.5
			c10.2,2.5,19.1,7.1,25.5,15.6c11.2,14.8,8.3,34-6.8,46.5c-12.3,10.2-26.8,14.9-42.3,16.3c-33.9,2.9-62-8.5-82.6-36
			c-13.9-18.5-18.1-39.7-14.4-62.4c2.8-9.8,9.4-17,16.6-23.5c10.9-9.9,23.9-16.2,38-20.2C233.2,829.3,234.4,829,235.7,829.7z"/>
		<path class="st215" d="M671.8,860.2c0-25.5,0-51,0-76.6c0-7.3,0.8-8.4,7.9-9.4c30.3-4.5,60.6-8.9,90.9-13.4
			c13.9-2,27.8-4,41.6-6.3c4.3-0.7,5.8,0.9,5.8,4.7c0.1,4.4,0,8.7,0,13.1c0,45.1,0,90.1,0,135.2c0,7.7-0.9,8.8-8.4,10.3
			c-43,8.6-85.9,17.3-128.9,25.9c-8,1.6-8.9,0.8-8.9-7.5C671.7,911,671.7,885.6,671.8,860.2C671.7,860.2,671.7,860.2,671.8,860.2z"
			/>
		<path class="st216" d="M674.4,510.6c0,25.7,0,51.3,0,77c0,6.1-1.1,7-6.9,4.7c-24.6-9.6-49.2-19.4-73.8-29
			c-3.6-1.4-4.5-4.3-4.4-7.8c0-14.5,0-29.1,0-43.6c0-32.6,0-65.2,0-97.8c0-7.4,1.2-8.2,8.2-6.6c22.9,5.2,45.9,10.2,68.8,15.3
			c6.7,1.5,8.1,3.2,8.1,10.3C674.5,458.9,674.4,484.8,674.4,510.6z"/>
		<path class="st217" d="M379.1,641.9c0.8-22.7,5-48,17.6-71.3c4.2-7.7,9.2-14.5,16.8-19.5c10.1-6.6,19.1-14.8,28.2-22.9
			c1.4-1.3,2.5-2.6,3.7,0.4c11.8,29.5,26.2,58,32.8,89.3c6.4,30.3,4.6,60-7,88.9c-1.6,3.9-2.7,5-7.1,2.9
			c-22.4-11.1-46.3-14.8-71.1-12c-5.1,0.6-7-0.9-8.2-5.5C380.7,676.8,379.1,661.1,379.1,641.9z"/>
		<path class="st218" d="M668.6,859.8c0,25.8,0,51.7,0,77.5c0,1.5,0.9,3.6-0.9,4.4c-1.4,0.6-2.6-1-3.7-1.8
			c-23.3-16.4-46.7-32.9-70.1-49.2c-3.8-2.7-4.6-6.2-4.6-10.5c0-34.2,0-68.5,0-102.7c0-11.6,0-23.3,0.1-34.9c0-6.3,1.4-7.2,6.7-4.5
			c22.5,11.4,44.9,22.8,67.3,34.2c4,2,5.3,5.2,5.2,9.5C668.6,807.8,668.6,833.8,668.6,859.8z"/>
		<path class="st219" d="M721,169.7c0.1,2.4-1.4,3.8-3.1,5.2c-21.1,17-42.3,33.9-63.4,50.9c-15.1,12.1-30.2,24.2-45.4,36.3
			c-4.6,3.7-6.1,2.7-9.6-1.9c-6.6-8.8-6.3-19.3-8.3-29.3c-2.9-14.5-9.4-26.8-23.5-33.5c-1.7-0.8-2.5-2.4-3.4-4
			c-11.9-22.7-23.8-45.5-35.7-68.2c-3.2-6.2-2.8-8.5,2.8-12.8c34.5-26.3,69.1-52.5,103.7-78.8c3.1-2.3,6.1-4.8,9.2-7.1
			c4.7-3.6,6.7-3.1,9.3,2.2c12.3,25.4,24.7,50.8,37,76.2c9.7,20,19.4,40.1,29,60.2C720.2,166.6,721.1,168,721,169.7z"/>
		<path class="st220" d="M380,319.3c5.5,7.9,10.3,16.1,12.6,25.7c4.1,17.3,1.6,34.1-4.2,50.6c-0.6,1.6-1.6,3.2-1.4,5
			c-10.5,19.4-23.6,36.7-42.7,48.5c-26.6,16.4-65.8,13.9-89.8-5.6c-25.5-20.6-30.4-58.6-11.6-88.2c4.3-6.7,9-12.9,15.7-17.6
			c3.9,15.6,13.7,23.7,31.1,25.6c26.5,2.9,49.4-14.1,54.4-40.2c1.3-6.7,0.6-13.1-3.2-19.6C356.9,302.4,369.6,307.9,380,319.3z"/>
		<path class="st221" d="M649.4,679.4c0,24.7,0,49.4,0,74.1c0,1.7,0.9,4-0.8,4.9c-1.4,0.8-2.8-1.1-4.1-1.9
			c-13.8-8.7-27.5-17.5-41.2-26.3c-3-1.9-4.3-4.5-4.3-8.1c0-47.5,0-95,0-142.4c0-5.2,1.5-6.1,6.2-3.7c13.3,6.6,26.5,13.3,39.8,20
			c3.7,1.9,4.6,4.9,4.6,8.8C649.4,629.6,649.5,654.5,649.4,679.4C649.4,679.4,649.4,679.4,649.4,679.4z"/>
		<path class="st222" d="M225,496.5c0.1,13.8-1.6,27.5-4.9,40.9c-2,8.3-4.6,16.5-8.4,24.1c-10.1,20.4-19.7,41-26.8,62.6
			c-7.6,23.1-12.1,46.8-10.2,71.2c1.4,17.7,7.7,34.2,14.2,50.5c7.9,19.5,20.4,35.8,36.1,49.5c16.3,14.2,35,24.6,55.4,31.7
			c11.1,3.9,22.1,7.8,34,8.7c2,0.1,4.2,0.5,5.4,2.7c-10.2,2.2-20.2,0.3-30.1-1.4c-25.4-4.3-49.3-12.7-70.9-27.2
			c-29.4-19.8-49.4-46.5-59.1-80.6c-10.7-37.3-9.8-74.6,1.4-111.7c0.8-2.8,2.1-5.4,3.7-7.8c9.2-23.1,20.4-45.3,28.4-68.8
			c4.6-13.4,8.4-27.1,10-41.2c0.3-3,0.8-4.1,4.3-3.7C213.3,496.7,219.2,496.4,225,496.5z"/>
		<path class="st223" d="M647.8,240c2,3.6,0.8,7.1,0.7,10.5c-0.1,23.4-0.3,46.8,0.2,70.3c0.1,5.6-0.3,11.2-0.2,16.9
			c0.3,22.9,0.5,45.8,0.6,68.8c0,6.1-0.3,6.3-5.9,4.5c-13-4.2-26-8.4-39.1-12.4c-4.2-1.3-6.1-3.4-6.1-7.9c0.1-37.5,0.1-74.9,0-112.4
			c0-3.2,0.9-4.8,4.3-4.7c4.8,0.2,8-2.9,11.4-5.7C625,258.6,636.3,249.3,647.8,240z"/>
		<path class="st224" d="M442.5,121.2c10.6-8.8,20.2-16.8,29.8-24.8c21.6-18.2,43.3-36.3,64.8-54.6c3.5-3,7.1-4.4,11.7-5
			c29.4-3.9,58.8-8.1,88.2-12.2c0.6-0.1,1.2,0,2.7,0c-3.7,2.9-6.8,5.4-9.9,7.8c-33.8,25.6-67.7,51.2-101.4,77
			c-4.4,3.3-8.9,5.4-14.5,5.8c-22.3,1.8-44.7,4-67,6C445.9,121.3,444.9,121.2,442.5,121.2z"/>
		<path class="st225" d="M508.6,214.3c-2.7-8.4-5.5-15.6-11.6-21.3c-6-5.6-13.2-7-20.3-3c-3,1.7-3.3-0.4-4.1-2
			c-7.9-14.4-15.8-28.9-23.6-43.3c-2.5-4.7-5.2-9.3-7.6-14.1c-1.8-3.4-0.8-5.1,3.1-5.4c23.6-2,47.2-3.8,70.8-5.8
			c3.8-0.3,6.6,1,8.4,4.4c12,23,24,46.1,36,69.1c0.2,0.4,0.2,0.9,0.3,1.6C539.8,192.7,523.1,199.8,508.6,214.3z"/>
		<path class="st226" d="M124,420.8c5.2,6.7,10.3,13.5,15.8,20c11.6,13.9,26.3,23.1,44,27.1c23.8,5.3,46.6,1.2,68.7-8.2
			c1.6-0.7,3.4-1.2,4.3-3c10.2,4.3,20.5,8.5,31.5,10.4c3.8,0.7,7.6,1.3,11.4,1.9c-5.3-0.1-8.2,4.8-12.9,5.9c-1.8-1.1-3,0.5-4.4,1
			c-27.3,10.2-55.3,15.4-84.3,9.9c-15.2-2.9-28.5-10.3-40.4-19.8c-13.9-11.1-24.8-24.8-32.4-41C124.7,423.7,124.5,422.2,124,420.8z"
			/>
		<path class="st208" d="M164.9,609.8c-3,11-6.8,21.8-8.4,33.2c-6.4,44.4-2.1,86.9,22.8,125.5c12.8,19.9,30.2,35.1,50.8,46.6
			c23.9,13.3,49.6,20.4,76.8,22.7c4.3,0.4,8.6,1.1,13,0.7c1.6,0.1,3.1,0.1,4.7,0.2c0.3,0.1,0.5,0.2,0.5,0.4c0,0.2-0.1,0.4-0.2,0.4
			c-4.9,0.4-9.9-0.6-14.5,2.1c-0.5,0.3-1.2,0.6-1.8,0.5c-23.1-1.7-45.9-5.1-67.3-14.8c-12.5-5.7-24.2-13.2-34.2-22.3
			c-9.3-8.4-18.4-17.5-25.3-28.3c-1.9-3-3.9-5.9-6.2-8.6c-4.3-4.9-4.9-4.9-7.6,0.7c-4.1-3.7-5.8-8.8-8.1-13.5
			c-4-7.9-7.2-16.2-9.6-24.8c-1.2-4.3-3.4-6.1-7.9-5.9c-10.7,0.4-18.5,4.9-23.2,14.6c-5,10.4-4.2,20.6,3,29.6
			c8.3,10.5,20.7,13.1,33.1,8c1.8-0.7,3.5-2.6,5.8-1.2c-6.4,7.9-15.4,9.1-24.1,7.4c-11.3-2.2-19.9-8.5-23.4-20.5
			c-4.1-13.8,3-32.7,15.3-40c2.4-1.4,5.1-1.6,7.5-1c3.9,1.1,7.6-0.3,11.4-0.2c2.7,0.1,3.7-1.3,3.7-3.9c0-4.1-0.6-8.1-2.3-11.7
			c-1-2.3-1.9-4.5-2-6.8c-0.6-9.6-2.5-19.2-1.2-28.8c1.8-13,4.7-25.9,8.6-38.4c1.9-6.3,3.6-12.7,7.3-18.3
			C162.5,611.8,163.3,610.4,164.9,609.8z"/>
		<path class="st227" d="M161,775.5c-8.1,4.6-16.7,6.6-26,4c-14.2-4-22.4-18.6-20.3-31.8c2.6-16.5,15.6-26.3,31.1-24.5
			c2.1,0.2,3.9,0.5,4.7,3.2c3.9,14,9.5,27.4,16.7,40.1c0.4,0.7,0.5,1.5,0.7,2.3C165.6,771,163.3,773.2,161,775.5z"/>
		<path class="st226" d="M359.6,707.6c-2.6,1.8-3.8,1-3.9-2c-0.4-24.5-0.3-48.9,7.8-72.5c2.6-7.6,7-14,11.5-20.4
			c-1.3,12.6-2.4,25.2-2.1,38c0.4,15.2,2.8,30.1,7.9,44.4c1.2,3.4,0.8,4.7-2.9,5.5c-5.6,1.3-11.1,3.3-16.6,5.1
			C360.6,706,358.9,705.8,359.6,707.6z"/>
		<path class="st228" d="M359.1,190.2c-11.6-9.6-23.4-17.7-37.1-22.6c-1.9-0.7-1.9-1.6-1.3-3.3c2-5.4,2.9-10.9,1.4-16.6
			c-0.6-2.3,1-2.8,2.4-3.5c11.1-6.4,25.8-3.2,33.1,7.3C366.2,163.8,364.7,176.7,359.1,190.2z"/>
		<path class="st106" d="M94.6,358.8c-13.3-1.4-24.4-5.5-31.4-17c-5.6-9.1-4.8-20.3,1.6-29.1c2.8-3.8,6.3-6.4,10.8-7.8
			c1.9-0.6,2.8-0.5,3.2,1.9c1,5.6,3.7,10.4,9,13c1.5,0.8,1.6,1.8,1.5,3.1C88.8,334.9,90.2,346.7,94.6,358.8z"/>
		<path class="st229" d="M235.7,829.7c-14,4.4-27.5,9.8-39,19.5c-5.6,4.7-10.2,10.3-14.3,16.3c-1.8,2.6-3.3,5.3-5,8
			c0.9-9.6,4-18.5,7.7-27.3c4.7-11.2,10.4-21.8,17.3-31.9c1.8-2.7,3.3-3.2,6-1C216.7,819.9,226.4,824.5,235.7,829.7z"/>
		<path class="st230" d="M439.4,278.2c-3.5-8.5-6.8-16.7-11.8-24.1c-0.7-1.1-0.6-2.1,0.1-3.1c2.7-3.8,5.2-7.8,8.7-11
			c4-3.8,8.1-2.8,10.2,2.4c1.3,3.4,1.5,6.9,1.2,10.5C447.2,261.9,443.7,270.1,439.4,278.2z"/>
		<path class="st231" d="M86.3,120.3c0.3,0.9,0.8,1.7,1.7,2.3c17.2,11.9,26.7,29.6,36.1,47.5c0.5,1,0.9,2.1,1,3.2
			c0.2,1.7,0.6,4-1.4,4.6c-1.8,0.6-2.7-1.4-3.5-2.7c-8.7-14.1-17.5-28.2-29.8-39.6c-1.6-1.5-2.9-4.3-6-2.7
			C85,128.7,84.9,124.3,86.3,120.3z"/>
		<path class="st232" d="M67.8,157c10.7,9,17.2,21,22.9,33.3c4.6,9.9,9,20.1,8.1,31.5c-0.8,10.5-5.2,19.6-12.3,27.4
			c0.9-2.2,1.6-4.4,2.6-6.6c6.9-14.5,6.7-28.8,0-43.4C84,188,78.5,176.9,70.9,167c-1.4-1.8-2.3-5-5.7-4
			C65.3,160.7,66.7,158.9,67.8,157z"/>
		<path class="st231" d="M196,81.4c-2.2,0-4.5,0-8.2,0c10.3,11.2,20.2,21.2,30.9,30.3c11,9.4,24.5,13.1,39.7,16.1
			c-6.4,2.2-11.5,0.9-16.5-0.1c-12.2-2.4-22.6-8.5-31.6-16.9c-8.5-7.9-16.9-15.9-25.1-24.2c-3.4-3.4-6.7-5.9-11.7-5.1
			C181,80.2,188.5,80.2,196,81.4z"/>
		<path class="st233" d="M312.6,321.9c-1.2-0.1-2.3,0.1-3.4-0.2c-3.3-0.9-6.8-2.1-7.4-6c-0.5-3.5,2.2-5.5,4.9-7.1
			c4.8-2.9,9.9-4.8,15.6-4.1c3,0.4,5.7,1.4,6.8,4.6c1.1,3.4-0.6,6-3,8C322.1,320.2,317.6,321.7,312.6,321.9z"/>
		<path class="st234" d="M157.2,86.5c10.2,10.1,20.8,19.8,30.1,30.8c2.6,3.1,5.3,6.1,7.8,9.2c1.5,1.9,4.2,4.5,1.6,6.6
			c-2.6,2.1-4.1-1.4-5.5-3.1c-11-13.8-23.6-26-37-37.5c-2.3-2-5.3-3.2-6.9-6C150.6,86.8,153.9,88,157.2,86.5z"/>
		<path class="st235" d="M400.3,832.8c-0.9,4.5-3.2,8.3-5.6,12.2c-6.1,9.9-10.5,20.6-15.2,31.2c-1.4,3.2-0.4,7-0.6,10.5
			c-0.1,2.4-0.1,4.8-0.1,7.2c-1.9-10-0.8-19.9,0.4-29.8c0.8-6.7,2.5-13.3,3.7-20c0.5-2.6,1.7-4.2,4.3-5.3
			C391.7,837,396,834.8,400.3,832.8z"/>
		<path class="st236" d="M737.3,761.8c-17.8,2.6-35.6,5.3-53.4,7.9c-4.1,0.6-8.3,0.9-12.5,1.1c-2.8,0.2-5.3-0.7-7.3-3
			C666.8,766.9,732.7,761,737.3,761.8z"/>
		<path class="st237" d="M443.1,299.4c-1.1-6.2-2.1-11.8-3.2-17.5c-0.4-2.1,0.3-3,2.5-3c3.9,0,7.6,1.1,11.3,2.2
			c2.1,0.6,1.5,1.6,0.6,2.8C450.7,289,447,294.1,443.1,299.4z"/>
		<path class="st238" d="M667.7,417.9c21.9-0.9,43.7-1.9,65.6-2.8c-21.8,2.3-43.5,6.8-65.5,4.8C667.7,419.2,667.7,418.5,667.7,417.9
			z"/>
		<path class="st239" d="M803.7,585c-10.4,0.7-20.9,1.4-31.3,2.1c0-0.4-0.1-0.8-0.1-1.3C782.8,585.6,792.9,580.3,803.7,585z"/>
		<path class="st240" d="M593.4,256.5c1.1,1.9,2.2,3.8,3.2,5.8c0.6,1.2,2.1,2.7,0.8,3.8c-1.3,1.1-3.4,0.6-5.1,0.1
			c-1.7-0.4-1.3-2-1.1-3.2c0.3-2.1,0.8-4.3,1.2-6.4C592.7,256.6,593.1,256.5,593.4,256.5z"/>
		<path class="st222" d="M324.9,839.4c-0.1-0.3-0.2-0.5-0.3-0.8c5.6,0,11.2,0,16.7,0C335.9,840,330.4,839,324.9,839.4z"/>
		<path class="st226" d="M315.1,468.4c-2.5,1.5-5.3,0.8-7.9,0.7C309.7,468,312.4,468.3,315.1,468.4z"/>
		<path class="st226" d="M367.4,706.8c-1.8,1.4-3.9,0.8-6,0.7C363.3,706.4,365.3,706.7,367.4,706.8z"/>
		<path class="st241" d="M197.4,307.5c-0.1-7.2,2.4-13.1,8.7-16.8c6.4-3.8,12.9-2.5,18.7,1.4c11.6,7.6,17.7,18.8,18.1,32.5
			c0.5,15.8-13.4,23.6-26.9,15.5C204,332.7,198.2,321.5,197.4,307.5z"/>
		<path class="st242" d="M329.8,269.6c0,14.9-11.6,22.2-25.1,15.7c-11.8-5.6-21.4-23.1-20.1-36.1c1.3-11.9,10.3-17.8,21.8-14.3
			C319.2,238.7,329.8,254.5,329.8,269.6z"/>
		<path class="st243" d="M98.9,299.2c10.3-4,20.5-7.9,30.2-13c3.6-1.9,6.1-4.6,7.8-8.2c3.5-7.8,7.4-15.5,10.6-23.4
			c4.3-10.5,11.4-18.7,20-25.7c16.5-13.3,34.1-25,52.4-35.6c11.4-6.6,23.2-7,35.6-5.8c3.7,0.4,7.4,1.1,11,1.3
			c5.8,0.3,11.1-1.1,15.4-5.5c6.9-7.1,12.7-14.9,17.6-23.5c1.1,0.4,0.7,1.1,0.5,1.6c-3.2,7.6-7.6,14.6-12,21.5
			c-6.2,9.8-15.6,11.7-25.7,10.7c-15.1-1.5-28.9,0.7-42,9.2c-18.5,12.1-37.1,24.1-54.2,38.2c-4.7,3.8-8.4,8.4-11.2,13.8
			c-4.5,8.8-9.1,17.4-13.7,26.2c-1.1,2.2-2.6,4.2-4.6,5.6C125.4,294.2,112.5,297.8,98.9,299.2z"/>
		<path class="st244" d="M204.9,183.7c-0.1,3.1-1.4,4.9-3.5,6.1c-9.9,5.8-19.6,11.9-29,18.4c-3.6,2.5-6.8,1.7-9-2
			c-6.2-10.4-12.3-20.8-18.4-31.3c-1.9-3.3-1.2-6.2,2.1-8.3c9.8-6.2,19.6-12.5,29.4-18.7c4.1-2.5,6.5-1.9,8.9,2
			c5.8,9.7,11.6,19.4,17.4,29.1C203.9,180.6,205,182.2,204.9,183.7z"/>
		<path class="st245" d="M732.1,272.5c12.6,0,25.2-0.1,37.7,0c6.1,0,7.7,1.7,7.8,7.8c0.1,4,0,8.1,0,12.1c0,4.4-2.1,6.5-6.5,6.5
			c-5.8-0.1-11.6,0.1-17.4-0.2c-4.6-0.2-6.3,1.7-6.3,6.2c0.1,21.1,0.1,42.3,0,63.4c0,7-1.5,8.4-8.6,8.5c-4.7,0-9.4,0-14,0
			c-5.7,0-7.4-1.7-7.4-7.6c0-21.1,0-42.3,0-63.4c0-6.7-0.8-7.5-7.5-7.6c-5.5-0.1-11-0.1-16.5-0.3c-5.1-0.2-6.8-2-6.9-7.2
			c-0.1-4.4,0-7.1,0.2-11.4c0.2-5.2,2-6.9,7.1-6.9L732.1,272.5z"/>
		<path class="st246" d="M691.6,731.1c-11.5,0.5-12.2-0.3-8.2-11.4c10.5-29.3,21-58.6,31.5-87.9c1.2-3.4,3.4-5.5,7-5.7
			c7.4-0.6,14.8-1.1,22.2-1.6c3.6-0.2,6.1,1.4,7.4,4.9c11.2,28.9,22.4,57.7,33.6,86.6c2,5.2,0.4,7.7-5,8.3c-5.9,0.6-11.9,1-17.8,1.6
			c-4.2,0.4-7-1-8.7-5.2c-2.7-6.5-6.8-8.6-13.8-7.9c-5,0.5-9.9,1.1-14.9,1.4c-5.6,0.4-9.6,3.1-11.4,8.3c-1.8,5.3-5,7.9-10.7,7.7
			C699,730,695.3,730.7,691.6,731.1z"/>
		<path class="st247" d="M709.2,504.2c0-15.3,0-30.7,0-46c0-5.6,1.5-7,7.1-7.4c19.8-1.4,39.6-2.8,59.4-4.2c6.2-0.4,7.3,0.6,7.3,6.9
			c0,2.9-0.1,5.8,0,8.7c0.2,4.7-2.1,6.6-6.6,7c-11.3,0.8-22.5,2-33.8,2.7c-4.6,0.3-6.3,2.5-6.1,6.8c0,0.2,0,0.3,0,0.5
			c-0.1,9.7,0.4,10.1,10.1,9.2c9-0.8,18-1.6,27-2.3c3.8-0.3,5.8,1.5,5.8,5.3c0,2.7,0,5.5,0,8.2c0,6.9-0.7,7.5-7.7,8.2
			c-9.8,1-19.6,2.1-29.4,2.9c-4.3,0.4-6.1,2.3-5.8,6.5c0.1,2.6,0.1,5.2,0,7.8c-0.1,4.3,1.9,5.7,6,5.3c11.7-1.2,23.5-2.3,35.2-3.4
			c5.5-0.5,7,0.8,7.1,6.3c0.2,16.8,1.8,15.7-14.9,17.6c-17.8,2-35.6,4.1-53.4,6.2c-5.3,0.6-7.2-0.9-7.2-6.3c-0.1-15.5,0-31,0-46.5
			C709.3,504.2,709.2,504.2,709.2,504.2z"/>
		<path class="st247" d="M719.9,846c-2,3.1-1.7,5.6-1.7,7.9c-0.1,15.2-0.1,30.4-0.2,45.5c0,6.9-1.3,8.3-8.2,9.5
			c-3.3,0.6-6.7,1.2-10,1.8c-4.7,0.7-6.7-0.8-6.8-5.6c-0.2-6.9-0.1-13.9-0.1-20.8c0-24.1,0-48.1,0-72.2c0-7.5,1-8.7,8.2-9.8
			c7.8-1.2,15.7-2.2,23.5-3.4c4.7-0.7,7.2,1.2,8.5,5.7c3.3,11.8,6.8,23.6,10.2,35.3c0.5,1.7,0.6,4.1,2.6,4.2
			c2.2,0.1,2.1-2.5,2.5-4.1c3.6-13.2,7.2-26.5,10.6-39.8c1.2-4.6,3.7-6.8,8.3-7.3c8-0.9,16-2.2,24-3.1c5.7-0.7,7.3,0.8,7.3,6.7
			c0,29.5-0.1,59.1,0.1,88.6c0,5-2.1,7.5-6.9,8.2c-3,0.4-6,1.1-9.1,1.6c-7,1.3-9-0.4-9.1-7.7c-0.1-12.1,0-24.2,0-36.3
			c0-4.2,0-8.3,0-12.5c-2.5-0.1-2.1,1.6-2.4,2.6c-5.2,17.2-9.4,34.6-13.4,52c-1.2,5.2-3.9,7.6-9.1,8.4c-12.7,1.9-12.7,2.1-16.1-10.5
			c-3.3-12.1-6.7-24.3-10-36.4C721.9,852,721,849.5,719.9,846z"/>
		<path class="st248" d="M685,147.5c-0.7,21.5-10.2,40.2-29.8,53.2c-25.9,17.2-59.3,10.6-79.6-15.3c-26.3-33.5-14-85.8,24-102.3
			c27.4-11.9,59.2-0.9,75.2,26.1C681.4,120.4,684.9,132.5,685,147.5z"/>
		<path class="st249" d="M355.9,326.4c10.6-1.1,19.1,8.3,19.1,20.1c-2.5-1.4-2.6-4.6-5.3-6.2c-1.4,10.9-5,20.6-11.9,28.8
			c-1.5,1.8-0.6,3.4-0.2,5c2.9,12.9,4,25.8,1.8,38.9c-0.6,3.7-1.5,7.3-3,10.7c-7.8,18.1-24.2,23.5-41.3,13.8
			c-9.2-5.2-15.9-13-21.9-21.6c-5.2-7.4-9.6-15.3-13.4-23.5c-1.2-2.5-2.6-4.1-5.4-5c-5.2-1.6-10.1-4.1-15.2-7
			c-2.3,4.3-2.3,8.9-3,13.5c-3-5.4-3.5-11.2-1.4-17c1.9-5.1,4.9-9.3,10.8-10.7c0,0.8,0.1,1.1,0,1.3c-5,8-5.1,8,3.7,11.6
			c20.1,8.1,40.7,10.9,61.2,2.1c18.2-7.8,29.8-21.6,33.6-41.4c0.8-4.4-0.1-7.9-4.2-10.2C358.8,328.8,357.8,327.8,355.9,326.4z"/>
		<path class="st250" d="M208.1,302.6c0-5.1,3.8-8.3,8.9-7.5c6.2,1,12.3,9,11.6,15.2c-0.4,3.9-3.3,6.6-7.1,6.4
			C215,316.6,208,309.2,208.1,302.6z"/>
		<path class="st250" d="M314.2,253c0,5.2-2.5,8.2-6.8,8.1c-6.4-0.1-13.6-7.6-13.6-14.1c0-4.6,3-7.5,7.6-7.4
			C307.9,239.7,314.2,246.3,314.2,253z"/>
		<path class="st251" d="M156,177.4c0.1-10.7,8.6-19.2,19-19.1c10.2,0.1,18.9,8.9,18.7,18.9c-0.2,11.2-8.4,19.8-18.9,19.8
			C164,197,155.9,188.5,156,177.4z"/>
		<path class="st252" d="M733,654.9c4,10,6.7,19.2,9.2,28.5c0.8,2.9-0.1,5.3-3.4,5.7c-3.8,0.6-7.7,0.8-11.5,1.1
			c-3.4,0.2-4.8-1.3-3.8-4.7C726.5,675.7,729.6,665.9,733,654.9z"/>
		<path class="st253" d="M679,144.2c-0.5,21.7-8.3,39-25.9,50.7c-23.9,15.8-53.8,10.5-72.4-12.3c-17.8-21.8-17.8-56-0.1-77.7
			c23.3-28.5,64-26.8,86.4,3.5C675,119.3,678.7,131.6,679,144.2z"/>
		<path class="st254" d="M354.7,397.7c-0.3,4.2-0.6,8.2-1,12.2c-0.2,2.7-0.7,4.3-4,2.1c-16.1-10.5-32.9-12-50.3-3
			c-1.7,0.9-2.6,0.6-3.4-0.9c-2.7-4.6-5.4-9.1-8.1-13.7c-1.4-2.4-1.3-3.4,2.1-3c9.9,1.3,19.8,1.7,29.8-0.2
			c10.7-2.1,20.1-6.6,28.7-13.1c2.4-1.8,3.1-2.1,3.9,1.2C353.7,385.4,353.9,391.7,354.7,397.7z"/>
		<path class="st255" d="M317.8,409.2c12.6,0.2,21.5,2.3,29.2,8.4c2.6,2.1,3.5,3.9,1.5,7.3c-5.7,9.6-15.9,13.1-26.2,8.4
			c-8.1-3.7-14.5-9.4-20.1-16.2c-1.6-2-1.4-2.8,0.8-3.9C308.7,410.5,314.6,409.1,317.8,409.2z"/>
		<path class="st256" d="M158.1,178.1c0-9.7,7.3-17.6,16.2-17.6c9.7,0,17.1,7.4,17.1,17.2c0,9.9-7,17.3-16.4,17.2
			C165.3,194.8,158,187.5,158.1,178.1z"/>
		<path class="st257" d="M661.3,118.8c0.2,7.5-4.1,10.5-8.6,11.9c-8.5,2.6-14.6,8.6-21.5,13.5c-3.3,2.3-4,4.7-2.2,8.2
			c1.8,3.5,4.4,3.7,7.7,2.5c5.2-1.9,10.2-4.1,13.3-9.1c2-3.2,4.9-3.6,8-2.7c7,2.2,10.8,7.4,12.3,14.3c1.3,6.2-2.5,9.8-7.2,13
			c-9.2,6.2-19,10.8-29.8,13.4c-8,1.9-11.2,0.8-16-6.1c-1.5-2.1-2.8-4.3-4.3-6.4c-2.1-2.8-4-3-5.7,0.4c-0.8,1.6-1.6,3.2-2.7,4.5
			c-4,5-9.7,6.2-15,2.7c-6-3.9-11.2-8.8-13.2-16.1c-1-3.5-0.4-6.2,3.4-7.9c4-1.8,7.2-4.9,10.5-7.7c5.9-5,5.7-11.2-0.2-16.3
			c-5.6-4.8-6.5-9.9-2.8-16.3c3.2-5.7,8.3-8.4,14.6-9c5.3-0.5,9,2.2,10.7,7.2c0.2,0.6,0.4,1.2,0.5,1.9c2.8,10.2,3.1,10.3,10.8,2.5
			c3.4-3.4,6.7-7,10.2-10.4c6.1-6,12.8-6.3,19.3-0.8C657.8,109.8,661,114.3,661.3,118.8z"/>
		<path class="st258" d="M171,185.4c-2.3,2.4-4.6,5.6-8.1,1.6c-2.1-2.3-3.2-4.5,0.3-6.6c2.7-1.6,3.5-3.7,0.7-6.1
			c-2.9-2.6-1-4.7,1-6.4c2.1-1.8,4.6-2.2,6,0.8c1.3,2.9,2.5,2.1,4.1,0.4c1.1-1.2,2.1-2.5,3.4-3.4c2.8-2,5-0.6,6.6,1.7
			c1.6,2.2,1,4.4-1.5,5.6c-2.2,1.1-4,2.7-5.8,4.3c-1,0.8-1.6,1.5-0.7,2.8c0.9,1.2,1.9,0.9,2.9,0.2c0.9-0.6,1.9-1.3,2.6-2.2
			c2.3-2.9,4.2-1.5,5.9,0.4c1.9,2.1,1.5,4.1-0.9,5.6c-1.3,0.9-2.7,1.8-4.1,2.6C177,190.6,176.3,190.5,171,185.4z"/>
	</g>
</g>
<g id="注釈">
</g>
</svg>
