<?xml version="1.0" encoding="utf-8"?>
<!-- Generator: Adobe Illustrator 27.2.0, SVG Export Plug-In . SVG Version: 6.00 Build 0)  -->
<svg version="1.1" xmlns="http://www.w3.org/2000/svg" xmlns:xlink="http://www.w3.org/1999/xlink" x="0px" y="0px"
	 viewBox="0 0 172 42" style="enable-background:new 0 0 172 42;" xml:space="preserve" width="172" height="42">
<style type="text/css">
	.st0{clip-path:url(#SVGID_00000131365758202655865480000017384109760269302913_);}
	.st1{clip-path:url(#SVGID_00000145019053435165884520000007846523795815196552_);}
	.st2{clip-path:url(#SVGID_00000110439226411212172260000004099068095961843895_);}
	.st3{clip-path:url(#SVGID_00000111173228178493646340000002734780035739282597_);}
	.st4{clip-path:url(#SVGID_00000090290684832565996180000008432328792645463706_);}
	.st5{clip-path:url(#SVGID_00000165938127175737392430000012517161025702740140_);}
	.st6{clip-path:url(#SVGID_00000124867995499244931750000003630360506109753015_);}
	.st7{clip-path:url(#SVGID_00000160883966312193669290000003352679202680483719_);}
	.st8{clip-path:url(#SVGID_00000036971951096040475870000016738212916942868114_);}
	.st9{clip-path:url(#SVGID_00000025432375219034124360000011763145597038166703_);}
	.st10{clip-path:url(#SVGID_00000024689461316442191300000006745303786562043020_);}
	.st11{clip-path:url(#SVGID_00000137103974680347439710000005543093968698955913_);}
	.st12{clip-path:url(#SVGID_00000101098263031076901690000015161819415594024635_);}
	.st13{clip-path:url(#SVGID_00000014592308737940142420000012750571082830387591_);}
	.st14{clip-path:url(#SVGID_00000128454300233198494560000008876553586143653005_);}
	.st15{clip-path:url(#SVGID_00000098209253243888728930000011466582105860875657_);}
	.st16{clip-path:url(#SVGID_00000052818283413877750970000014912523665905620883_);}
	.st17{clip-path:url(#SVGID_00000058570361629775757650000017472394195683453627_);}
	.st18{clip-path:url(#SVGID_00000066502350752952398410000004842907069447198119_);}
	.st19{clip-path:url(#SVGID_00000059278431754588771140000004017205870503700645_);}
	.st20{clip-path:url(#SVGID_00000029018497918690752750000002943518041820402069_);}
	.st21{clip-path:url(#SVGID_00000176761476377553866280000015423442058790496685_);}
	.st22{clip-path:url(#SVGID_00000129200817049345659190000009474787446471759503_);}
	.st23{clip-path:url(#SVGID_00000036232005910110725420000011807591772079878062_);}
	.st24{fill:#FFFFFF;stroke:#FFFFFF;stroke-miterlimit:10;}
	.st25{fill:none;stroke:#FFFFFF;stroke-miterlimit:10;}
	.st26{fill:#1C2B5A;}
	.st27{fill:none;stroke:#3C3C3C;stroke-miterlimit:10;}
	.st28{fill:#3B3C3C;}
	.st29{fill:#F0F0F0;}
	.st30{fill:#FFFFFF;stroke:#000000;stroke-miterlimit:10;}
	.st31{fill:#FFFFFF;}
	.st32{fill:#3C3C3C;}
	.st33{fill:#F4F4F4;}
	.st34{fill:#606B8B;}
	.st35{fill:none;stroke:#828282;stroke-width:1.8937;stroke-miterlimit:10;}
	.st36{fill:#211714;}
	.st37{fill:#C8CACA;}
	.st38{fill:none;stroke:#000000;stroke-miterlimit:10;}
	.st39{fill:none;stroke:#464546;stroke-width:2;stroke-miterlimit:10;}
</style>
<g id="レイヤー_4">
</g>
<g id="テキスト">
	<g>
		<g>
			<path class="st31" d="M58.8,16.7V10c0-0.1-0.1-0.1-0.1,0l-1.6,3.4c0,0.1-0.1,0.1-0.1,0.1h-1c-0.1,0-0.1,0-0.1-0.1l-1.5-3.4
				c0-0.1-0.1-0.1-0.1,0v6.7c0,0.1-0.1,0.2-0.2,0.2h-2.6c-0.1,0-0.2-0.1-0.2-0.2V4.4c0-0.1,0.1-0.2,0.2-0.2H54c0.1,0,0.1,0,0.1,0.1
				l2.3,5.1c0,0.1,0.1,0.1,0.1,0l2.3-5.1c0-0.1,0.1-0.1,0.1-0.1h2.6c0.1,0,0.2,0.1,0.2,0.2v12.3c0,0.1-0.1,0.2-0.2,0.2H59
				C58.9,16.8,58.8,16.8,58.8,16.7z"/>
			<path class="st31" d="M73.2,16.7l-0.6-2.3c0-0.1-0.1-0.1-0.1-0.1h-2.8c-0.1,0-0.1,0-0.1,0.1l-0.6,2.3c0,0.1-0.1,0.1-0.1,0.1H66
				c-0.1,0-0.2-0.1-0.1-0.2l3.8-12.3c0-0.1,0.1-0.1,0.1-0.1h2.3c0.1,0,0.1,0,0.1,0.1l3.9,12.3c0,0.1,0,0.2-0.1,0.2h-2.8
				C73.2,16.8,73.2,16.8,73.2,16.7z M71.8,11.7l-0.7-2.5c0-0.2-0.3-0.2-0.3,0l-0.7,2.5c0,0.1,0,0.2,0.1,0.2h1.3
				C71.8,11.9,71.9,11.8,71.8,11.7z"/>
			<path class="st31" d="M85.9,16.8l-1.8-4.3c0-0.1-0.1-0.1-0.1-0.1h-0.6c-0.1,0-0.2,0.1-0.2,0.2v4.1c0,0.1-0.1,0.2-0.2,0.2h-2.6
				c-0.1,0-0.2-0.1-0.2-0.2V4.4c0-0.1,0.1-0.2,0.2-0.2h4c1.3,0,2.3,0.3,3,1c0.7,0.7,1.1,1.6,1.1,2.9c0,1.6-0.5,2.7-1.6,3.4
				c-0.1,0-0.1,0.1-0.1,0.2l2,4.7v0.4h-2.9C86,16.8,85.9,16.8,85.9,16.8z M84.4,9.9c0.4,0,0.7-0.1,0.9-0.4c0.2-0.3,0.3-0.7,0.3-1.2
				c0-1.5-0.7-1.6-1.2-1.6h-1.1c-0.1,0-0.2,0.1-0.2,0.2v2.9c0,0.1,0.1,0.2,0.2,0.2H84.4z"/>
			<path class="st31" d="M97.8,17c-1.4,0-2.4-0.4-3.1-1.1c-0.7-0.7-1.1-1.8-1.1-3.1V4.4c0-0.1,0.1-0.2,0.2-0.2h2.6
				c0.1,0,0.2,0.1,0.2,0.2v8.4c0,0.6,0.1,1.1,0.3,1.4c0.2,0.2,0.5,0.4,1,0.4c0.5,0,0.9-0.1,1-0.4c0.2-0.3,0.3-0.7,0.3-1.3V4.4
				c0-0.1,0.1-0.2,0.2-0.2h2.6c0.1,0,0.2,0.1,0.2,0.2v8.5c0,1.3-0.4,2.4-1.1,3.1C100.2,16.7,99.2,17,97.8,17"/>
			<path class="st31" d="M111.1,17c-0.8,0-1.6-0.2-2.2-0.5c-0.7-0.3-1.2-0.8-1.6-1.5c-0.4-0.6-0.6-1.4-0.6-2.2v-0.2h2.9v0.2
				c0,0.6,0.1,1.1,0.4,1.4c0.2,0.3,0.6,0.4,1.2,0.4c0.7,0,1.1-0.4,1.1-1.2c0-0.4-0.1-0.8-0.3-1c-0.2-0.2-0.7-0.5-1.3-0.7
				c-1.2-0.5-2.2-1-2.7-1.7c-0.6-0.7-0.9-1.4-0.9-2.3c0-1.1,0.4-2,1.2-2.6c0.8-0.7,1.7-1,2.9-1c0.8,0,1.5,0.2,2.1,0.5
				c0.6,0.3,1.1,0.8,1.4,1.4c0.3,0.6,0.5,1.3,0.5,2.1v0.2h-2.9V8c0-0.5-0.1-0.9-0.3-1.2c-0.2-0.2-0.5-0.4-0.9-0.4
				c-0.4,0-0.6,0.1-0.8,0.3c-0.2,0.2-0.3,0.5-0.3,0.9c0,0.3,0.1,0.5,0.3,0.8c0.2,0.3,0.7,0.5,1.4,0.8c1.2,0.4,2.1,1,2.7,1.6
				c0.6,0.7,0.9,1.5,0.9,2.5c0,1.1-0.4,2-1.1,2.6C113.3,16.7,112.3,17,111.1,17"/>
			<path class="st31" d="M125.5,16.7v-4.9c0-0.1-0.1-0.2-0.2-0.2h-2.9c-0.1,0-0.2,0.1-0.2,0.2v4.9c0,0.1-0.1,0.2-0.2,0.2h-2.6
				c-0.1,0-0.2-0.1-0.2-0.2V4.4c0-0.1,0.1-0.2,0.2-0.2h2.6c0.1,0,0.2,0.1,0.2,0.2V9c0,0.1,0.1,0.2,0.2,0.2h2.9
				c0.1,0,0.2-0.1,0.2-0.2V4.4c0-0.1,0.1-0.2,0.2-0.2h2.6c0.1,0,0.2,0.1,0.2,0.2v12.3c0,0.1-0.1,0.2-0.2,0.2h-2.6
				C125.6,16.8,125.5,16.8,125.5,16.7z"/>
			<path class="st31" d="M133.6,4.2h2.6c0.1,0,0.2,0.1,0.2,0.2v12.3c0,0.1-0.1,0.2-0.2,0.2h-2.6c-0.1,0-0.2-0.1-0.2-0.2V4.4
				C133.5,4.3,133.5,4.2,133.6,4.2z"/>
			<path class="st31" d="M145.2,17c-1.4,0-2.6-0.5-3.3-1.4c-0.8-0.9-1.1-2.3-1.1-4V9.5c0-1.7,0.4-3.1,1.2-4c0.8-1,1.9-1.4,3.3-1.4
				c1.4,0,2.5,0.4,3.2,1.2c0.7,0.8,1.1,1.9,1.2,3.3l0,0.2h-2.9l0-0.2c0-0.8-0.1-1.4-0.4-1.7c-0.2-0.3-0.6-0.4-1.2-0.4
				c-0.6,0-1,0.2-1.2,0.6c-0.3,0.4-0.4,1.2-0.4,2.2v2.3c0,1.2,0.1,2,0.4,2.4c0.2,0.4,0.6,0.6,1.2,0.6c0.6,0,1-0.1,1.2-0.4
				c0.2-0.3,0.3-0.8,0.4-1.6l0-0.2h2.9l0,0.2c-0.1,1.4-0.5,2.5-1.2,3.3C147.6,16.6,146.6,17,145.2,17"/>
			<path class="st31" d="M160.3,16.7v-4.9c0-0.1-0.1-0.2-0.2-0.2h-2.9c-0.1,0-0.2,0.1-0.2,0.2v4.9c0,0.1-0.1,0.2-0.2,0.2h-2.6
				c-0.1,0-0.2-0.1-0.2-0.2V4.4c0-0.1,0.1-0.2,0.2-0.2h2.6c0.1,0,0.2,0.1,0.2,0.2V9c0,0.1,0.1,0.2,0.2,0.2h2.9
				c0.1,0,0.2-0.1,0.2-0.2V4.4c0-0.1,0.1-0.2,0.2-0.2h2.6c0.1,0,0.2,0.1,0.2,0.2v12.3c0,0.1-0.1,0.2-0.2,0.2h-2.6
				C160.4,16.8,160.3,16.8,160.3,16.7z"/>
			<path class="st31" d="M168.5,4.2h2.6c0.1,0,0.2,0.1,0.2,0.2v12.3c0,0.1-0.1,0.2-0.2,0.2h-2.6c-0.1,0-0.2-0.1-0.2-0.2V4.4
				C168.3,4.3,168.4,4.2,168.5,4.2z"/>
			<path class="st31" d="M54.8,37.6V25.8c0-0.1-0.1-0.2-0.2-0.2h-3.2c-0.1,0-0.2-0.1-0.2-0.2v-2.1c0-0.1,0.1-0.2,0.2-0.2h9.7
				c0.1,0,0.2,0.1,0.2,0.2v2.1c0,0.1-0.1,0.2-0.2,0.2h-3.3c-0.1,0-0.2,0.1-0.2,0.2v11.7c0,0.1-0.1,0.2-0.2,0.2h-2.6
				C54.8,37.7,54.8,37.7,54.8,37.6z"/>
			<path class="st31" d="M72.2,37.6l-0.7-2.7c0-0.1-0.1-0.1-0.1-0.1h-3.8c-0.1,0-0.1,0-0.1,0.1l-0.7,2.7c0,0.1-0.1,0.1-0.1,0.1h-2.7
				c-0.1,0-0.2-0.1-0.1-0.2l4.4-14.1c0-0.1,0.1-0.1,0.1-0.1h2.4c0.1,0,0.1,0,0.1,0.1l4.5,14.1c0,0.1,0,0.2-0.1,0.2h-2.8
				C72.3,37.7,72.2,37.7,72.2,37.6z M68.2,32.4h2.4c0.1,0,0.2-0.1,0.1-0.2l-1.2-4.5c0-0.2-0.3-0.2-0.3,0l-1.2,4.5
				C68.1,32.3,68.1,32.4,68.2,32.4z"/>
			<path class="st31" d="M86.2,37.6l-2.5-5.3c0-0.1-0.2-0.1-0.3,0l-1,1.2c0,0,0,0.1,0,0.1v3.9c0,0.1-0.1,0.2-0.2,0.2h-2.6
				c-0.1,0-0.2-0.1-0.2-0.2V23.4c0-0.1,0.1-0.2,0.2-0.2h2.6c0.1,0,0.2,0.1,0.2,0.2v6.2l1-1.6l2.6-4.7c0,0,0.1-0.1,0.1-0.1h3.2
				c0.1,0,0.2,0.1,0.1,0.2l-3.9,6c0,0,0,0.1,0,0.2l4.1,7.8c0.1,0.1,0,0.2-0.1,0.2h-3.1C86.3,37.7,86.2,37.7,86.2,37.6z"/>
			<path class="st31" d="M101.6,37.6l-0.7-2.7c0-0.1-0.1-0.1-0.1-0.1H97c-0.1,0-0.1,0-0.1,0.1l-0.7,2.7c0,0.1-0.1,0.1-0.1,0.1h-2.7
				c-0.1,0-0.2-0.1-0.1-0.2l4.4-14.1c0-0.1,0.1-0.1,0.1-0.1h2.4c0.1,0,0.1,0,0.1,0.1l4.5,14.1c0,0.1,0,0.2-0.1,0.2h-2.8
				C101.7,37.7,101.7,37.7,101.6,37.6z M97.7,32.4h2.4c0.1,0,0.2-0.1,0.1-0.2L99,27.7c0-0.2-0.3-0.2-0.3,0l-1.2,4.5
				C97.5,32.3,97.6,32.4,97.7,32.4z"/>
			<path class="st31" d="M116.2,37.6v-5.9c0-0.1-0.1-0.2-0.2-0.2h-4c-0.1,0-0.2,0.1-0.2,0.2v5.9c0,0.1-0.1,0.2-0.2,0.2h-2.6
				c-0.1,0-0.2-0.1-0.2-0.2V23.4c0-0.1,0.1-0.2,0.2-0.2h2.6c0.1,0,0.2,0.1,0.2,0.2V29c0,0.1,0.1,0.2,0.2,0.2h4
				c0.1,0,0.2-0.1,0.2-0.2v-5.6c0-0.1,0.1-0.2,0.2-0.2h2.6c0.1,0,0.2,0.1,0.2,0.2v14.1c0,0.1-0.1,0.2-0.2,0.2h-2.6
				C116.3,37.7,116.2,37.7,116.2,37.6z"/>
			<path class="st31" d="M131.9,37.6l-0.7-2.7c0-0.1-0.1-0.1-0.1-0.1h-3.8c-0.1,0-0.1,0-0.1,0.1l-0.7,2.7c0,0.1-0.1,0.1-0.1,0.1
				h-2.7c-0.1,0-0.2-0.1-0.1-0.2l4.4-14.1c0-0.1,0.1-0.1,0.1-0.1h2.4c0.1,0,0.1,0,0.1,0.1l4.5,14.1c0,0.1,0,0.2-0.1,0.2h-2.8
				C132,37.7,132,37.7,131.9,37.6z M128,32.4h2.4c0.1,0,0.2-0.1,0.1-0.2l-1.2-4.5c0-0.2-0.3-0.2-0.3,0l-1.2,4.5
				C127.8,32.3,127.9,32.4,128,32.4z"/>
			<path class="st31" d="M143.5,37.9c-0.9,0-1.8-0.2-2.6-0.6c-0.8-0.4-1.4-0.9-1.8-1.6c-0.4-0.7-0.6-1.5-0.6-2.3
				c0-0.1,0.1-0.2,0.2-0.2h2.6c0.1,0,0.1,0.1,0.2,0.2c0,0.7,0.2,1.3,0.5,1.7c0.3,0.4,0.9,0.6,1.6,0.6c1,0,1.6-0.6,1.6-1.6
				c0-0.6-0.2-1-0.5-1.4c-0.3-0.3-0.9-0.6-1.7-0.9c-1.4-0.5-2.5-1.2-3.1-1.9c-0.6-0.7-1-1.6-1-2.6c0-1.2,0.4-2.2,1.3-2.9
				c0.9-0.7,2-1.1,3.3-1.1c0.9,0,1.7,0.2,2.4,0.6c0.7,0.4,1.2,0.9,1.6,1.6c0.3,0.6,0.5,1.3,0.6,2.1c0,0.1-0.1,0.2-0.2,0.2h-2.6
				c-0.1,0-0.1-0.1-0.2-0.2c0-0.6-0.2-1.1-0.4-1.4c-0.3-0.4-0.7-0.5-1.3-0.5c-0.5,0-0.9,0.2-1.2,0.5c-0.3,0.3-0.4,0.7-0.4,1.2
				c0,0.4,0.2,0.8,0.5,1.1c0.3,0.3,0.9,0.7,1.7,1c1.4,0.5,2.4,1.1,3.1,1.9c0.6,0.7,1,1.7,1,2.8c0,1.3-0.4,2.2-1.2,2.9
				C146,37.6,144.9,37.9,143.5,37.9"/>
			<path class="st31" d="M160.1,37.6v-5.9c0-0.1-0.1-0.2-0.2-0.2h-4c-0.1,0-0.2,0.1-0.2,0.2v5.9c0,0.1-0.1,0.2-0.2,0.2H153
				c-0.1,0-0.2-0.1-0.2-0.2V23.4c0-0.1,0.1-0.2,0.2-0.2h2.6c0.1,0,0.2,0.1,0.2,0.2V29c0,0.1,0.1,0.2,0.2,0.2h4
				c0.1,0,0.2-0.1,0.2-0.2v-5.6c0-0.1,0.1-0.2,0.2-0.2h2.6c0.1,0,0.2,0.1,0.2,0.2v14.1c0,0.1-0.1,0.2-0.2,0.2h-2.6
				C160.2,37.7,160.1,37.7,160.1,37.6z"/>
			<path class="st31" d="M168.5,23.3h2.6c0.1,0,0.2,0.1,0.2,0.2v14.1c0,0.1-0.1,0.2-0.2,0.2h-2.6c-0.1,0-0.2-0.1-0.2-0.2V23.4
				C168.3,23.3,168.4,23.3,168.5,23.3z"/>
		</g>
		<g>
			<path class="st34" d="M28.8,2.7L8.9,37.1c1,0.8,2.1,1.4,3.3,2L32.1,4.5C31.1,3.8,30,3.2,28.8,2.7z"/>
			<path class="st31" d="M3.9,21c0-3.6,1.1-6.9,3-9.6l5.2,9l2.2-3.8L9.5,8.4c3-2.7,6.9-4.3,11.2-4.3c0.5,0,0.9,0,1.4,0.1L6.9,30.6
				C5,27.9,3.9,24.6,3.9,21z M22.6,31l-5.5-9.4L15,25.4l3.2,5.6H22.6z M36,8c-0.9-1-1.8-1.9-2.8-2.7L20.8,26.6l2.2,3.8l11.3-19.6
				c2.1,2.8,3.4,6.3,3.4,10.1c0,9.3-7.6,16.9-16.9,16.9c-4.3,0-8.2-1.6-11.2-4.3L27.7,2.2c-1.2-0.4-2.5-0.8-3.8-1
				c-1-0.2-2-0.2-3.1-0.2c-11,0-20,9-20,20c0,11,9,20,20,20s20-9,20-20C40.8,16,39,11.5,36,8z"/>
		</g>
	</g>
</g>
<g id="枠_x30FB_ガイド">
</g>
<g id="ヘッダ">
</g>
<g id="レイヤー_5">
</g>
</svg>
