<?xml version="1.0" encoding="utf-8"?>
<!-- Generator: Adobe Illustrator 27.2.0, SVG Export Plug-In . SVG Version: 6.00 Build 0)  -->
<svg version="1.1" xmlns="http://www.w3.org/2000/svg" xmlns:xlink="http://www.w3.org/1999/xlink" x="0px" y="0px"
	 viewBox="0 0 171 41" style="enable-background:new 0 0 171 41;" xml:space="preserve" width="171" height="41">
<style type="text/css">
	.st0{clip-path:url(#SVGID_00000011739599458032493590000017536423450643325851_);}
	.st1{clip-path:url(#SVGID_00000006669836258515365790000014951313625071211662_);}
	.st2{clip-path:url(#SVGID_00000121960409783420484280000008944844224956261511_);}
	.st3{clip-path:url(#SVGID_00000036970545676928370390000006085654794604010903_);}
	.st4{clip-path:url(#SVGID_00000090985579219517365210000018323046702387984824_);}
	.st5{clip-path:url(#SVGID_00000137111861317168292920000006392310402064365468_);}
	.st6{clip-path:url(#SVGID_00000031177931738036758250000006302370223451549075_);}
	.st7{clip-path:url(#SVGID_00000007407545168895705060000002997115437456838311_);}
	.st8{clip-path:url(#SVGID_00000054970993732645573110000016534867356033791134_);}
	.st9{clip-path:url(#SVGID_00000146457844981825932000000011138991507537929091_);}
	.st10{clip-path:url(#SVGID_00000119828877076822515420000007736297082651822011_);}
	.st11{clip-path:url(#SVGID_00000166669686623696487920000015928656274702978441_);}
	.st12{clip-path:url(#SVGID_00000059301038539790992140000005622081332895862692_);}
	.st13{clip-path:url(#SVGID_00000172419638898609563030000010971918169776335252_);}
	.st14{clip-path:url(#SVGID_00000015324025196455141580000017447913620047886506_);}
	.st15{clip-path:url(#SVGID_00000054233332153322728850000012724221711854316467_);}
	.st16{clip-path:url(#SVGID_00000101083593733233575900000007484356160377962151_);}
	.st17{clip-path:url(#SVGID_00000071534563547421125600000000213366278433136054_);}
	.st18{clip-path:url(#SVGID_00000118360829064650674560000013183406881805230760_);}
	.st19{clip-path:url(#SVGID_00000182526939265412733010000013211159366605133721_);}
	.st20{clip-path:url(#SVGID_00000164478797117147593120000009152458381408314018_);}
	.st21{clip-path:url(#SVGID_00000032608962848436774270000009941605152590119566_);}
	.st22{clip-path:url(#SVGID_00000061447109976267298250000013480704043506982036_);}
	.st23{clip-path:url(#SVGID_00000127756530284385440800000001936934128958152893_);}
	.st24{fill:#FFFFFF;stroke:#FFFFFF;stroke-miterlimit:10;}
	.st25{fill:none;stroke:#FFFFFF;stroke-miterlimit:10;}
	.st26{fill:#1C2B5A;}
	.st27{fill:none;stroke:#3C3C3C;stroke-miterlimit:10;}
	.st28{fill:#3B3C3C;}
	.st29{fill:#F0F0F0;}
	.st30{fill:#FFFFFF;stroke:#000000;stroke-miterlimit:10;}
	.st31{fill:#FFFFFF;}
	.st32{fill:#3C3C3C;}
	.st33{fill:#F4F4F4;}
	.st34{fill:#606B8B;}
	.st35{fill:none;stroke:#828282;stroke-width:1.8937;stroke-miterlimit:10;}
	.st36{fill:#211714;}
	.st37{fill:#C8CACA;}
	.st38{fill:none;stroke:#000000;stroke-miterlimit:10;}
	.st39{fill:none;stroke:#464546;stroke-width:2;stroke-miterlimit:10;}
</style>
<g id="レイヤー_4">
</g>
<g id="テキスト">
	<g>
		<g>
			<path class="st36" d="M58.3,16.2V9.5c0-0.1-0.1-0.1-0.1,0l-1.6,3.4c0,0.1-0.1,0.1-0.1,0.1h-1c-0.1,0-0.1,0-0.1-0.1l-1.5-3.4
				c0-0.1-0.1-0.1-0.1,0v6.7c0,0.1-0.1,0.2-0.2,0.2h-2.6c-0.1,0-0.2-0.1-0.2-0.2V3.9c0-0.1,0.1-0.2,0.2-0.2h2.6c0.1,0,0.1,0,0.1,0.1
				l2.3,5.1c0,0.1,0.1,0.1,0.1,0l2.3-5.1c0-0.1,0.1-0.1,0.1-0.1h2.6c0.1,0,0.2,0.1,0.2,0.2v12.3c0,0.1-0.1,0.2-0.2,0.2h-2.6
				C58.4,16.3,58.3,16.3,58.3,16.2z"/>
			<path class="st36" d="M72.7,16.2L72.1,14c0-0.1-0.1-0.1-0.1-0.1h-2.8c-0.1,0-0.1,0-0.1,0.1l-0.6,2.3c0,0.1-0.1,0.1-0.1,0.1h-2.7
				c-0.1,0-0.2-0.1-0.1-0.2l3.8-12.3c0-0.1,0.1-0.1,0.1-0.1h2.3c0.1,0,0.1,0,0.1,0.1l3.9,12.3c0,0.1,0,0.2-0.1,0.2h-2.8
				C72.7,16.3,72.7,16.3,72.7,16.2z M71.3,11.2l-0.7-2.5c0-0.2-0.3-0.2-0.3,0l-0.7,2.5c0,0.1,0,0.2,0.1,0.2h1.3
				C71.3,11.4,71.4,11.3,71.3,11.2z"/>
			<path class="st36" d="M85.4,16.3L83.7,12c0-0.1-0.1-0.1-0.1-0.1h-0.6c-0.1,0-0.2,0.1-0.2,0.2v4.1c0,0.1-0.1,0.2-0.2,0.2H80
				c-0.1,0-0.2-0.1-0.2-0.2V3.9c0-0.1,0.1-0.2,0.2-0.2h4c1.3,0,2.3,0.3,3,1c0.7,0.7,1.1,1.6,1.1,2.9c0,1.6-0.5,2.7-1.6,3.4
				c-0.1,0-0.1,0.1-0.1,0.2l2,4.7v0.4h-2.9C85.5,16.3,85.4,16.3,85.4,16.3z M83.9,9.4c0.4,0,0.7-0.1,0.9-0.4
				c0.2-0.3,0.3-0.7,0.3-1.2c0-1.5-0.7-1.6-1.2-1.6h-1.1c-0.1,0-0.2,0.1-0.2,0.2v2.9c0,0.1,0.1,0.2,0.2,0.2H83.9z"/>
			<path class="st36" d="M97.3,16.5c-1.4,0-2.4-0.4-3.1-1.1c-0.7-0.7-1.1-1.8-1.1-3.1V3.9c0-0.1,0.1-0.2,0.2-0.2h2.6
				c0.1,0,0.2,0.1,0.2,0.2v8.4c0,0.6,0.1,1.1,0.3,1.4c0.2,0.2,0.5,0.4,1,0.4c0.5,0,0.9-0.1,1-0.4c0.2-0.3,0.3-0.7,0.3-1.3V3.9
				c0-0.1,0.1-0.2,0.2-0.2h2.6c0.1,0,0.2,0.1,0.2,0.2v8.5c0,1.3-0.4,2.4-1.1,3.1C99.7,16.2,98.7,16.5,97.3,16.5"/>
			<path class="st36" d="M110.6,16.5c-0.8,0-1.6-0.2-2.2-0.5c-0.7-0.3-1.2-0.8-1.6-1.5c-0.4-0.6-0.6-1.4-0.6-2.2v-0.2h2.9v0.2
				c0,0.6,0.1,1.1,0.4,1.4c0.2,0.3,0.6,0.4,1.2,0.4c0.7,0,1.1-0.4,1.1-1.2c0-0.4-0.1-0.8-0.3-1c-0.2-0.2-0.7-0.5-1.3-0.7
				c-1.2-0.5-2.2-1-2.7-1.7c-0.6-0.7-0.9-1.4-0.9-2.3c0-1.1,0.4-2,1.2-2.6c0.8-0.7,1.7-1,2.9-1c0.8,0,1.5,0.2,2.1,0.5
				c0.6,0.3,1.1,0.8,1.4,1.4c0.3,0.6,0.5,1.3,0.5,2.1v0.2h-2.9V7.5c0-0.5-0.1-0.9-0.3-1.2c-0.2-0.2-0.5-0.4-0.9-0.4
				c-0.4,0-0.6,0.1-0.8,0.3c-0.2,0.2-0.3,0.5-0.3,0.9c0,0.3,0.1,0.5,0.3,0.8c0.2,0.3,0.7,0.5,1.4,0.8c1.2,0.4,2.1,1,2.7,1.6
				c0.6,0.7,0.9,1.5,0.9,2.5c0,1.1-0.4,2-1.1,2.6C112.8,16.2,111.8,16.5,110.6,16.5"/>
			<path class="st36" d="M125,16.2v-4.9c0-0.1-0.1-0.2-0.2-0.2H122c-0.1,0-0.2,0.1-0.2,0.2v4.9c0,0.1-0.1,0.2-0.2,0.2h-2.6
				c-0.1,0-0.2-0.1-0.2-0.2V3.9c0-0.1,0.1-0.2,0.2-0.2h2.6c0.1,0,0.2,0.1,0.2,0.2v4.6c0,0.1,0.1,0.2,0.2,0.2h2.9
				c0.1,0,0.2-0.1,0.2-0.2V3.9c0-0.1,0.1-0.2,0.2-0.2h2.6c0.1,0,0.2,0.1,0.2,0.2v12.3c0,0.1-0.1,0.2-0.2,0.2h-2.6
				C125.1,16.3,125,16.3,125,16.2z"/>
			<path class="st36" d="M133.1,3.7h2.6c0.1,0,0.2,0.1,0.2,0.2v12.3c0,0.1-0.1,0.2-0.2,0.2h-2.6c-0.1,0-0.2-0.1-0.2-0.2V3.9
				C133,3.8,133,3.7,133.1,3.7z"/>
			<path class="st36" d="M144.7,16.5c-1.4,0-2.6-0.5-3.3-1.4c-0.8-0.9-1.1-2.3-1.1-4V9c0-1.7,0.4-3.1,1.2-4c0.8-1,1.9-1.4,3.3-1.4
				c1.4,0,2.5,0.4,3.2,1.2c0.7,0.8,1.1,1.9,1.2,3.3l0,0.2h-2.9l0-0.2c0-0.8-0.1-1.4-0.4-1.7c-0.2-0.3-0.6-0.4-1.2-0.4
				c-0.6,0-1,0.2-1.2,0.6c-0.3,0.4-0.4,1.2-0.4,2.2v2.3c0,1.2,0.1,2,0.4,2.4c0.2,0.4,0.6,0.6,1.2,0.6c0.6,0,1-0.1,1.2-0.4
				c0.2-0.3,0.3-0.8,0.4-1.6l0-0.2h2.9l0,0.2c-0.1,1.4-0.5,2.5-1.2,3.3C147.1,16.1,146.1,16.5,144.7,16.5"/>
			<path class="st36" d="M159.8,16.2v-4.9c0-0.1-0.1-0.2-0.2-0.2h-2.9c-0.1,0-0.2,0.1-0.2,0.2v4.9c0,0.1-0.1,0.2-0.2,0.2h-2.6
				c-0.1,0-0.2-0.1-0.2-0.2V3.9c0-0.1,0.1-0.2,0.2-0.2h2.6c0.1,0,0.2,0.1,0.2,0.2v4.6c0,0.1,0.1,0.2,0.2,0.2h2.9
				c0.1,0,0.2-0.1,0.2-0.2V3.9c0-0.1,0.1-0.2,0.2-0.2h2.6c0.1,0,0.2,0.1,0.2,0.2v12.3c0,0.1-0.1,0.2-0.2,0.2H160
				C159.9,16.3,159.8,16.3,159.8,16.2z"/>
			<path class="st36" d="M168,3.7h2.6c0.1,0,0.2,0.1,0.2,0.2v12.3c0,0.1-0.1,0.2-0.2,0.2H168c-0.1,0-0.2-0.1-0.2-0.2V3.9
				C167.8,3.8,167.9,3.7,168,3.7z"/>
			<path class="st36" d="M54.3,37.1V25.3c0-0.1-0.1-0.2-0.2-0.2h-3.2c-0.1,0-0.2-0.1-0.2-0.2v-2.1c0-0.1,0.1-0.2,0.2-0.2h9.7
				c0.1,0,0.2,0.1,0.2,0.2V25c0,0.1-0.1,0.2-0.2,0.2h-3.3c-0.1,0-0.2,0.1-0.2,0.2v11.7c0,0.1-0.1,0.2-0.2,0.2h-2.6
				C54.3,37.2,54.3,37.2,54.3,37.1z"/>
			<path class="st36" d="M71.7,37.1L71,34.4c0-0.1-0.1-0.1-0.1-0.1H67c-0.1,0-0.1,0-0.1,0.1l-0.7,2.7c0,0.1-0.1,0.1-0.1,0.1h-2.7
				c-0.1,0-0.2-0.1-0.1-0.2l4.4-14.1c0-0.1,0.1-0.1,0.1-0.1h2.4c0.1,0,0.1,0,0.1,0.1L74.7,37c0,0.1,0,0.2-0.1,0.2h-2.8
				C71.8,37.2,71.7,37.2,71.7,37.1z M67.7,31.9h2.4c0.1,0,0.2-0.1,0.1-0.2l-1.2-4.5c0-0.2-0.3-0.2-0.3,0l-1.2,4.5
				C67.6,31.8,67.6,31.9,67.7,31.9z"/>
			<path class="st36" d="M85.7,37.1l-2.5-5.3c0-0.1-0.2-0.1-0.3,0l-1,1.2c0,0,0,0.1,0,0.1v3.9c0,0.1-0.1,0.2-0.2,0.2h-2.6
				c-0.1,0-0.2-0.1-0.2-0.2V22.9c0-0.1,0.1-0.2,0.2-0.2h2.6c0.1,0,0.2,0.1,0.2,0.2v6.2l1-1.6l2.6-4.7c0,0,0.1-0.1,0.1-0.1h3.2
				c0.1,0,0.2,0.1,0.1,0.2l-3.9,6c0,0,0,0.1,0,0.2L89,37c0.1,0.1,0,0.2-0.1,0.2h-3.1C85.8,37.2,85.7,37.2,85.7,37.1z"/>
			<path class="st36" d="M101.1,37.1l-0.7-2.7c0-0.1-0.1-0.1-0.1-0.1h-3.8c-0.1,0-0.1,0-0.1,0.1l-0.7,2.7c0,0.1-0.1,0.1-0.1,0.1
				h-2.7c-0.1,0-0.2-0.1-0.1-0.2L97,22.9c0-0.1,0.1-0.1,0.1-0.1h2.4c0.1,0,0.1,0,0.1,0.1l4.5,14.1c0,0.1,0,0.2-0.1,0.2h-2.8
				C101.2,37.2,101.2,37.2,101.1,37.1z M97.2,31.9h2.4c0.1,0,0.2-0.1,0.1-0.2l-1.2-4.5c0-0.2-0.3-0.2-0.3,0l-1.2,4.5
				C97,31.8,97.1,31.9,97.2,31.9z"/>
			<path class="st36" d="M115.7,37.1v-5.9c0-0.1-0.1-0.2-0.2-0.2h-4c-0.1,0-0.2,0.1-0.2,0.2v5.9c0,0.1-0.1,0.2-0.2,0.2h-2.6
				c-0.1,0-0.2-0.1-0.2-0.2V22.9c0-0.1,0.1-0.2,0.2-0.2h2.6c0.1,0,0.2,0.1,0.2,0.2v5.6c0,0.1,0.1,0.2,0.2,0.2h4
				c0.1,0,0.2-0.1,0.2-0.2v-5.6c0-0.1,0.1-0.2,0.2-0.2h2.6c0.1,0,0.2,0.1,0.2,0.2v14.1c0,0.1-0.1,0.2-0.2,0.2h-2.6
				C115.8,37.2,115.7,37.2,115.7,37.1z"/>
			<path class="st36" d="M131.4,37.1l-0.7-2.7c0-0.1-0.1-0.1-0.1-0.1h-3.8c-0.1,0-0.1,0-0.1,0.1l-0.7,2.7c0,0.1-0.1,0.1-0.1,0.1
				h-2.7c-0.1,0-0.2-0.1-0.1-0.2l4.4-14.1c0-0.1,0.1-0.1,0.1-0.1h2.4c0.1,0,0.1,0,0.1,0.1l4.5,14.1c0,0.1,0,0.2-0.1,0.2h-2.8
				C131.5,37.2,131.5,37.2,131.4,37.1z M127.5,31.9h2.4c0.1,0,0.2-0.1,0.1-0.2l-1.2-4.5c0-0.2-0.3-0.2-0.3,0l-1.2,4.5
				C127.3,31.8,127.4,31.9,127.5,31.9z"/>
			<path class="st36" d="M143,37.4c-0.9,0-1.8-0.2-2.6-0.6c-0.8-0.4-1.4-0.9-1.8-1.6c-0.4-0.7-0.6-1.5-0.6-2.3
				c0-0.1,0.1-0.2,0.2-0.2h2.6c0.1,0,0.1,0.1,0.2,0.2c0,0.7,0.2,1.3,0.5,1.7c0.3,0.4,0.9,0.6,1.6,0.6c1,0,1.6-0.6,1.6-1.6
				c0-0.6-0.2-1-0.5-1.4c-0.3-0.3-0.9-0.6-1.7-0.9c-1.4-0.5-2.5-1.2-3.1-1.9c-0.6-0.7-1-1.6-1-2.6c0-1.2,0.4-2.2,1.3-2.9
				c0.9-0.7,2-1.1,3.3-1.1c0.9,0,1.7,0.2,2.4,0.6c0.7,0.4,1.2,0.9,1.6,1.6c0.3,0.6,0.5,1.3,0.6,2.1c0,0.1-0.1,0.2-0.2,0.2h-2.6
				c-0.1,0-0.1-0.1-0.2-0.2c0-0.6-0.2-1.1-0.4-1.4c-0.3-0.4-0.7-0.5-1.3-0.5c-0.5,0-0.9,0.2-1.2,0.5c-0.3,0.3-0.4,0.7-0.4,1.2
				c0,0.4,0.2,0.8,0.5,1.1c0.3,0.3,0.9,0.7,1.7,1c1.4,0.5,2.4,1.1,3.1,1.9c0.6,0.7,1,1.7,1,2.8c0,1.3-0.4,2.2-1.2,2.9
				C145.5,37.1,144.4,37.4,143,37.4"/>
			<path class="st36" d="M159.6,37.1v-5.9c0-0.1-0.1-0.2-0.2-0.2h-4c-0.1,0-0.2,0.1-0.2,0.2v5.9c0,0.1-0.1,0.2-0.2,0.2h-2.6
				c-0.1,0-0.2-0.1-0.2-0.2V22.9c0-0.1,0.1-0.2,0.2-0.2h2.6c0.1,0,0.2,0.1,0.2,0.2v5.6c0,0.1,0.1,0.2,0.2,0.2h4
				c0.1,0,0.2-0.1,0.2-0.2v-5.6c0-0.1,0.1-0.2,0.2-0.2h2.6c0.1,0,0.2,0.1,0.2,0.2v14.1c0,0.1-0.1,0.2-0.2,0.2h-2.6
				C159.7,37.2,159.6,37.2,159.6,37.1z"/>
			<path class="st36" d="M168,22.8h2.6c0.1,0,0.2,0.1,0.2,0.2v14.1c0,0.1-0.1,0.2-0.2,0.2H168c-0.1,0-0.2-0.1-0.2-0.2V22.9
				C167.8,22.8,167.9,22.8,168,22.8z"/>
		</g>
		<g>
			<path class="st37" d="M28.3,2.2L8.4,36.6c1,0.8,2.1,1.4,3.3,2L31.6,4C30.6,3.3,29.5,2.7,28.3,2.2z"/>
			<path class="st26" d="M3.4,20.5c0-3.6,1.1-6.9,3-9.6l5.2,9l2.2-3.8L9,7.9c3-2.7,6.9-4.3,11.2-4.3c0.5,0,0.9,0,1.4,0.1L6.4,30.1
				C4.5,27.4,3.4,24.1,3.4,20.5z M22.1,30.5l-5.5-9.4l-2.2,3.8l3.2,5.6H22.1z M35.5,7.5c-0.9-1-1.8-1.9-2.8-2.7L20.3,26.1l2.2,3.8
				l11.3-19.6c2.1,2.8,3.4,6.3,3.4,10.1c0,9.3-7.6,16.9-16.9,16.9C16,37.4,12,35.8,9,33.1L27.2,1.7c-1.2-0.4-2.5-0.8-3.8-1
				c-1-0.2-2-0.2-3.1-0.2c-11,0-20,9-20,20c0,11,9,20,20,20s20-9,20-20C40.3,15.5,38.5,11,35.5,7.5z"/>
		</g>
	</g>
</g>
<g id="枠_x30FB_ガイド">
</g>
<g id="ヘッダ">
</g>
<g id="レイヤー_5">
</g>
</svg>
