<?xml version="1.0" encoding="utf-8"?>
<!-- Generator: Adobe Illustrator 27.2.0, SVG Export Plug-In . SVG Version: 6.00 Build 0)  -->
<svg version="1.1" xmlns="http://www.w3.org/2000/svg" xmlns:xlink="http://www.w3.org/1999/xlink" x="0px" y="0px"
	 viewBox="0 0 150 150" style="enable-background:new 0 0 150 150;" xml:space="preserve" width="150" height="150">
<style type="text/css">
	.st0{clip-path:url(#SVGID_00000035511879941549670730000002103233960608569230_);}
	.st1{clip-path:url(#SVGID_00000097469984675838662120000015179706185797064101_);}
	.st2{clip-path:url(#SVGID_00000173859300446830036930000005469675905256788392_);}
	.st3{clip-path:url(#SVGID_00000071550460443956811860000012016263934489641368_);}
	.st4{clip-path:url(#SVGID_00000020373476032668416860000001594993822412841861_);}
	.st5{clip-path:url(#SVGID_00000132066303125900032930000015936362186003370149_);}
	.st6{clip-path:url(#SVGID_00000055672930505799607530000000567554303946204551_);}
	.st7{clip-path:url(#SVGID_00000012447803236883624790000004390587482801722499_);}
	.st8{clip-path:url(#SVGID_00000178173453186086387980000005574165971651992760_);}
	.st9{clip-path:url(#SVGID_00000183244654419698441780000003707325647463506318_);}
	.st10{clip-path:url(#SVGID_00000145031996681984740380000014394844964510283446_);}
	.st11{clip-path:url(#SVGID_00000127014783111713315970000007490345846400130979_);}
	.st12{clip-path:url(#SVGID_00000158719424108275489810000008581989439941937831_);}
	.st13{clip-path:url(#SVGID_00000094601328936966222560000018256625413545016720_);}
	.st14{clip-path:url(#SVGID_00000013165996421631320090000008833399047770748806_);}
	.st15{clip-path:url(#SVGID_00000036210557434135384100000015165538636838856595_);}
	.st16{clip-path:url(#SVGID_00000176740997651594561140000006478169183715409061_);}
	.st17{clip-path:url(#SVGID_00000096744658810736230870000011736071453861472668_);}
	.st18{clip-path:url(#SVGID_00000152229149332204823260000013029889749322736518_);}
	.st19{clip-path:url(#SVGID_00000178179033856042867930000007167234600719829176_);}
	.st20{clip-path:url(#SVGID_00000081629452051466868440000014182705442276105367_);}
	.st21{clip-path:url(#SVGID_00000124842565934570513630000008757227015186950027_);}
	.st22{clip-path:url(#SVGID_00000052804228731087805100000017210134223484358580_);}
	.st23{clip-path:url(#SVGID_00000031920916158437090000000000300920343789294247_);}
	.st24{fill:#FFFFFF;stroke:#FFFFFF;stroke-miterlimit:10;}
	.st25{fill:none;stroke:#FFFFFF;stroke-miterlimit:10;}
	.st26{fill:#1C2B5A;}
	.st27{fill:none;stroke:#3C3C3C;stroke-miterlimit:10;}
	.st28{fill:#3B3C3C;}
	.st29{fill:#F0F0F0;}
	.st30{fill:#FFFFFF;stroke:#000000;stroke-miterlimit:10;}
	.st31{fill:#FFFFFF;}
	.st32{fill:#3C3C3C;}
	.st33{fill:#F4F4F4;}
	.st34{fill:#606B8B;}
	.st35{fill:none;stroke:#828282;stroke-width:1.8937;stroke-miterlimit:10;}
	.st36{fill:#211714;}
	.st37{fill:#C8CACA;}
	.st38{fill:none;stroke:#000000;stroke-miterlimit:10;}
	.st39{fill:none;stroke:#464546;stroke-width:2;stroke-miterlimit:10;}
</style>
<g id="レイヤー_4">
</g>
<g id="テキスト">
	<g>
		<g>
			<circle class="st31" cx="75" cy="75" r="74.5"/>
			<path d="M75,150c-41.4,0-75-33.6-75-75S33.6,0,75,0s75,33.6,75,75S116.4,150,75,150z M75,1C34.2,1,1,34.2,1,75s33.2,74,74,74
				s74-33.2,74-74S115.8,1,75,1z"/>
		</g>
		<g>
			<g>
				<path class="st26" d="M42.9,48.5h-2.1v4.7h-2.6V40.5H43c1.5,0,2.7,0.3,3.5,1c0.8,0.7,1.2,1.6,1.2,2.8c0,0.9-0.2,1.6-0.6,2.2
					c-0.4,0.6-0.9,1-1.7,1.4l2.8,5.2v0.1h-2.8L42.9,48.5z M40.9,46.4H43c0.7,0,1.2-0.2,1.5-0.5c0.4-0.3,0.5-0.8,0.5-1.4
					c0-0.6-0.2-1.1-0.5-1.4s-0.9-0.5-1.6-0.5h-2.1V46.4z"/>
				<path class="st26" d="M57.8,47.7h-5v3.4h5.9v2.1h-8.5V40.5h8.5v2.1h-5.9v3h5V47.7z"/>
				<path class="st26" d="M70.6,49c-0.1,1.4-0.6,2.4-1.5,3.2s-2.1,1.2-3.6,1.2c-1.6,0-2.9-0.5-3.8-1.6c-0.9-1.1-1.4-2.6-1.4-4.5
					v-0.8c0-1.2,0.2-2.3,0.6-3.2s1-1.6,1.8-2.1s1.7-0.7,2.8-0.7c1.5,0,2.6,0.4,3.5,1.2c0.9,0.8,1.4,1.9,1.6,3.3H68
					c-0.1-0.8-0.3-1.4-0.7-1.8c-0.4-0.4-1-0.6-1.8-0.6c-0.9,0-1.5,0.3-2,0.9c-0.4,0.6-0.7,1.6-0.7,2.9v1c0,1.4,0.2,2.4,0.6,3
					c0.4,0.6,1.1,1,2,1c0.8,0,1.4-0.2,1.8-0.6s0.6-0.9,0.7-1.7H70.6z"/>
				<path class="st26" d="M77.6,48.5h-2.1v4.7h-2.6V40.5h4.7c1.5,0,2.7,0.3,3.5,1c0.8,0.7,1.2,1.6,1.2,2.8c0,0.9-0.2,1.6-0.6,2.2
					s-0.9,1-1.7,1.4l2.8,5.2v0.1h-2.8L77.6,48.5z M75.5,46.4h2.1c0.7,0,1.2-0.2,1.5-0.5c0.4-0.3,0.5-0.8,0.5-1.4
					c0-0.6-0.2-1.1-0.5-1.4c-0.3-0.3-0.9-0.5-1.6-0.5h-2.1V46.4z"/>
				<path class="st26" d="M94.3,40.5v8.4c0,1.4-0.4,2.5-1.3,3.3s-2.1,1.2-3.6,1.2c-1.5,0-2.7-0.4-3.5-1.2s-1.3-1.9-1.3-3.2v-8.5h2.6
					v8.4c0,0.8,0.2,1.4,0.6,1.8c0.4,0.4,1,0.6,1.7,0.6c1.5,0,2.2-0.8,2.2-2.3v-8.5H94.3z"/>
				<path class="st26" d="M99.8,53.2h-2.6V40.5h2.6V53.2z"/>
				<path class="st26" d="M112.1,42.6h-3.9v10.6h-2.6V42.6h-3.8v-2.1h10.4V42.6z"/>
				<path class="st26" d="M51.1,64.3l3.3,9.2l3.2-9.2H61V77h-2.6v-3.5l0.3-6L55.2,77h-1.8L50,67.6l0.3,6V77h-2.6V64.3H51.1z"/>
				<path class="st26" d="M74.3,71c0,1.3-0.2,2.3-0.7,3.3c-0.4,0.9-1.1,1.7-1.9,2.2c-0.8,0.5-1.8,0.8-2.8,0.8c-1.1,0-2-0.3-2.8-0.8
					c-0.8-0.5-1.5-1.2-1.9-2.2c-0.5-0.9-0.7-2-0.7-3.2v-0.6c0-1.3,0.2-2.4,0.7-3.3c0.5-1,1.1-1.7,1.9-2.2c0.8-0.5,1.8-0.8,2.8-0.8
					c1.1,0,2,0.3,2.8,0.8c0.8,0.5,1.5,1.2,1.9,2.2c0.5,1,0.7,2.1,0.7,3.3V71z M71.6,70.4c0-1.3-0.2-2.3-0.7-3s-1.2-1-2-1
					c-0.9,0-1.6,0.3-2,1c-0.5,0.7-0.7,1.7-0.7,3V71c0,1.3,0.2,2.3,0.7,3s1.2,1.1,2.1,1.1c0.9,0,1.6-0.3,2-1c0.5-0.7,0.7-1.7,0.7-3
					V70.4z"/>
				<path class="st26" d="M80.9,73.9l2.9-9.6h2.9L82.3,77h-2.7l-4.4-12.7H78L80.9,73.9z"/>
				<path class="st26" d="M91.2,77h-2.6V64.3h2.6V77z"/>
				<path class="st26" d="M101.8,71.5h-5v3.4h5.9V77h-8.5V64.3h8.5v2.1h-5.9v3h5V71.5z"/>
			</g>
			<polygon class="st26" points="82.9,108.6 71,101.8 71,115.5 			"/>
			<path class="st32" d="M75,124.5c-8.8,0-15.9-7.1-15.9-15.9S66.2,92.8,75,92.8s15.9,7.1,15.9,15.9S83.8,124.5,75,124.5z M75,93.7
				c-8.2,0-14.9,6.7-14.9,14.9s6.7,14.9,14.9,14.9s14.9-6.7,14.9-14.9S83.2,93.7,75,93.7z"/>
		</g>
	</g>
</g>
<g id="枠_x30FB_ガイド">
</g>
<g id="ヘッダ">
</g>
<g id="レイヤー_5">
</g>
</svg>
