<svg xmlns="http://www.w3.org/2000/svg" viewBox="0 0 64 64" width="64" height="64">
  <rect width="64" height="64" fill="#ffffff"/>
  <g transform="translate(12,12) scale(0.976)">
    <path fill="#C8CACA" d="M28.3,2.2L8.4,36.6c1,0.8,2.1,1.4,3.3,2L31.6,4C30.6,3.3,29.5,2.7,28.3,2.2z"/>
    <path fill="#1C2B5A" d="M3.4,20.5c0-3.6,1.1-6.9,3-9.6l5.2,9l2.2-3.8L9,7.9c3-2.7,6.9-4.3,11.2-4.3c0.5,0,0.9,0,1.4,0.1L6.4,30.1C4.5,27.4,3.4,24.1,3.4,20.5z M22.1,30.5l-5.5-9.4l-2.2,3.8l3.2,5.6H22.1z M35.5,7.5c-0.9-1-1.8-1.9-2.8-2.7L20.3,26.1l2.2,3.8l11.3-19.6c2.1,2.8,3.4,6.3,3.4,10.1c0,9.3-7.6,16.9-16.9,16.9C16,37.4,12,35.8,9,33.1L27.2,1.7c-1.2-0.4-2.5-0.8-3.8-1c-1-0.2-2-0.2-3.1-0.2c-11,0-20,9-20,20c0,11,9,20,20,20s20-9,20-20C40.3,15.5,38.5,11,35.5,7.5z"/>
  </g>
</svg>
